<svg version="1.1" id="Layer_1" xmlns="http://www.w3.org/2000/svg" xmlns:xlink="http://www.w3.org/1999/xlink" x="0px" y="0px"
	 width="100%" viewBox="0 0 1024 1024" enable-background="new 0 0 1024 1024" xml:space="preserve">
<path fill="#000000" opacity="1.000000" stroke="none" 
	d="
M619.464661,1025.000000 
	C624.520447,1020.294373 629.986572,1015.568237 635.994324,1011.417358 
	C640.656067,1008.196411 645.956360,1007.904846 650.991394,1006.511230 
	C664.552612,1002.757568 678.165894,997.823975 692.371338,999.216064 
	C701.031372,1000.064819 707.631104,997.476807 714.092041,992.811707 
	C716.347717,991.183105 718.802002,989.516418 718.527954,986.109070 
	C718.389587,984.389282 719.490723,983.306702 720.747131,982.441284 
	C725.646301,979.067078 730.477112,975.575195 735.541443,972.466125 
	C738.398926,970.711853 740.990356,968.873962 743.156921,966.255798 
	C754.845520,952.130615 762.152893,935.761353 765.913513,918.110107 
	C768.143860,907.641724 767.292847,896.720276 765.669250,885.900330 
	C763.363525,870.534973 753.754395,858.265747 749.074951,843.929749 
	C746.937561,837.381714 745.869995,830.698242 744.659973,824.040344 
	C744.166870,821.327393 742.685425,819.154541 742.232239,816.574036 
	C741.744324,813.795532 740.856995,810.390320 744.387512,809.332825 
	C747.693115,808.342590 749.994873,811.007629 750.323853,813.961121 
	C751.233276,822.125488 758.242676,824.864197 763.727661,825.910889 
	C774.941467,828.050903 784.427429,833.961365 794.890381,837.583801 
	C798.041992,838.674927 801.052063,840.012634 804.383423,840.126770 
	C814.147278,840.461243 823.663940,842.592041 833.283630,843.963745 
	C836.907898,844.480530 840.021057,841.766785 843.842346,842.868652 
	C853.415283,845.628906 863.390808,845.017395 873.199402,845.795654 
	C878.675415,846.230164 883.363708,842.918518 888.637756,842.307373 
	C889.953125,842.154907 891.521667,841.416931 892.538635,841.887878 
	C903.072937,846.766235 911.896973,839.957458 921.427063,837.944275 
	C926.370972,836.899963 928.484314,833.819519 929.114929,829.186035 
	C929.963989,822.947632 931.015564,816.718323 928.821777,810.522156 
	C928.367859,809.240173 927.847168,808.040771 926.753296,807.183044 
	C925.309021,806.050598 923.928955,806.332275 922.734741,807.544189 
	C921.571594,808.724609 921.961243,809.675232 922.993103,810.949890 
	C926.974915,815.868652 925.826111,820.201294 919.999817,822.976013 
	C918.399292,823.738342 917.556274,822.818970 916.779785,821.578857 
	C912.851746,815.305542 910.251099,808.665955 910.928284,801.077881 
	C911.002014,800.251770 911.103821,799.367188 910.899597,798.586426 
	C908.122192,787.969727 915.513977,783.205078 922.651428,778.484009 
	C924.789062,777.070068 924.980103,775.372498 924.770264,773.382385 
	C923.263184,759.087097 923.135254,744.535400 917.526184,730.964233 
	C916.078430,727.461121 914.241211,724.072510 912.214661,720.863831 
	C905.929932,710.913025 899.467590,701.074341 893.075684,691.191223 
	C892.626587,690.496765 892.247803,689.748657 891.738525,689.102600 
	C885.647156,681.374268 878.123535,681.204163 868.161072,684.883789 
	C859.732178,687.997070 850.728088,692.048096 840.929871,688.143799 
	C836.614136,686.424072 832.497742,689.550354 828.784546,691.377441 
	C825.977356,692.758850 823.866699,692.774048 822.084351,690.850342 
	C816.046875,684.333618 807.767334,684.009583 800.072693,683.528992 
	C787.819397,682.763794 777.198914,679.167542 768.362366,670.546753 
	C764.862061,667.131897 759.694458,665.451477 758.070435,660.055481 
	C757.489868,658.126770 756.035950,656.378296 758.099731,654.691833 
	C760.058838,653.090820 762.365173,653.553894 764.165100,654.832092 
	C767.684265,657.331055 771.383057,659.779297 774.264771,662.928223 
	C779.003906,668.106812 785.306335,670.146790 791.423218,672.552673 
	C794.950439,673.940002 799.101868,675.867310 802.449280,675.140991 
	C809.362305,673.640930 815.552185,676.194580 822.068176,676.668884 
	C826.200989,676.969727 830.298157,676.803772 834.447693,675.869873 
	C838.213379,675.022400 841.817505,675.608582 845.858398,677.102356 
	C851.199463,679.076660 857.185791,676.175537 862.801514,674.718201 
	C869.342407,673.020813 875.695557,670.548950 882.619141,670.432983 
	C885.979004,670.376709 887.459900,667.914795 887.823792,664.757507 
	C888.355835,660.140808 888.822754,655.549194 890.230957,651.044128 
	C891.591858,646.690674 889.585083,644.874756 882.689636,643.591064 
	C881.886230,648.631653 875.980164,649.150452 874.462463,653.627563 
	C862.541199,650.118347 850.957642,648.414307 838.914734,648.600647 
	C830.251587,648.734741 822.461792,643.969666 816.118530,638.604431 
	C808.712585,632.340332 800.264587,627.125000 794.258850,619.253357 
	C792.570923,617.040894 791.161743,617.565063 789.391235,619.348022 
	C780.893250,627.906067 773.675598,637.635376 764.400085,645.531067 
	C759.648682,649.575745 755.296143,654.202942 750.502502,658.273560 
	C746.947388,661.292419 746.842224,663.260193 751.057434,666.112671 
	C758.142944,670.907532 762.416809,678.024658 765.212891,686.085815 
	C767.091125,691.501160 765.454163,695.719849 761.683289,699.679382 
	C756.716248,704.895020 756.933044,706.226562 763.797241,708.190369 
	C776.522339,711.830872 789.381897,715.009644 802.648560,716.048584 
	C808.473938,716.504883 814.021484,718.276062 819.689148,719.408203 
	C828.380127,721.144409 837.359680,722.474304 846.135620,719.192871 
	C847.866455,718.545593 849.419495,717.984375 851.319580,719.147522 
	C852.698853,719.992004 854.621826,719.940491 856.117615,719.076843 
	C864.434143,714.275269 873.146484,716.167480 881.806824,717.499023 
	C883.892273,717.819702 885.600647,718.593140 887.867981,717.141907 
	C891.889160,714.568054 896.282593,717.076599 900.514221,717.351501 
	C901.542358,717.418274 902.039246,718.546387 902.029236,719.648865 
	C902.017090,720.981384 901.253113,721.842712 900.097168,722.301331 
	C895.580017,724.093262 890.713623,725.221680 886.045776,724.653931 
	C881.980530,724.159485 877.999207,724.286804 874.973389,726.289673 
	C869.473511,729.930420 864.183594,728.983215 858.759949,727.167297 
	C855.290344,726.005676 853.204163,726.583618 850.603699,729.460571 
	C848.785889,731.471802 845.226196,732.828857 841.860535,731.074524 
	C838.510925,729.328430 834.930420,729.083801 831.182983,729.183289 
	C819.504456,729.493286 808.086243,728.071899 796.713501,725.024719 
	C785.923828,722.133728 775.381165,718.162109 764.204102,716.738464 
	C762.929749,716.576050 761.679199,715.934631 760.502686,715.345398 
	C754.097168,712.137085 752.534119,712.257629 749.821533,718.907837 
	C747.708191,724.088867 743.352051,728.682617 744.759766,735.123718 
	C745.314270,737.660889 741.506592,739.226013 742.206848,741.901489 
	C743.924927,748.466248 742.927612,755.445068 746.891724,761.804077 
	C749.616333,766.174805 751.333801,771.352478 753.835632,776.054688 
	C755.930542,779.992004 757.953735,783.591919 762.537537,785.164490 
	C761.695618,789.258301 758.874817,791.774109 756.210327,794.050964 
	C751.250000,798.289795 747.114563,803.668213 740.679443,806.017944 
	C740.240234,806.178223 739.689819,806.575623 739.566772,806.977661 
	C737.944580,812.276184 732.624512,813.851746 729.328796,817.409790 
	C727.618530,819.256287 726.126282,820.344971 723.685364,820.727478 
	C720.391296,821.243835 714.493103,827.689697 714.209412,830.933228 
	C711.391052,830.591248 708.564209,831.910461 705.696228,829.984680 
	C703.959412,828.818481 701.993896,830.197510 700.772583,831.473450 
	C694.369812,838.163086 685.435974,839.786133 677.450195,843.249084 
	C673.699036,844.875732 669.348755,847.618958 666.012329,847.255737 
	C660.023254,846.603821 655.119934,849.310486 649.707581,850.080017 
	C640.079285,851.448730 630.523682,847.848511 620.682922,851.202515 
	C616.223816,852.722229 610.088684,850.680054 604.680359,850.897461 
	C599.114441,851.121155 594.352417,848.620667 589.228882,846.959351 
	C583.177246,844.997070 576.312988,844.843933 569.721985,846.362305 
	C563.242371,847.855103 556.667908,848.395081 550.037781,847.344666 
	C549.709717,847.292664 549.285950,847.124451 549.058594,847.261719 
	C541.610840,851.761292 534.577576,846.483337 527.332153,846.346741 
	C523.705322,846.278442 521.113220,843.899597 518.813782,841.598633 
	C510.570221,833.349609 506.473267,823.330444 507.031097,811.586609 
	C507.126831,809.571655 507.339966,807.639099 506.004974,805.868896 
	C501.406769,807.223572 498.302460,810.613770 494.904877,813.603455 
	C492.102173,816.069519 489.121796,817.795227 485.758575,814.490906 
	C484.323090,813.080383 482.909546,814.279480 481.536469,814.422607 
	C476.881409,814.908020 472.240143,816.972473 467.626099,814.049072 
	C466.901184,813.589844 465.611816,813.649414 464.708374,813.907104 
	C460.330566,815.155701 455.980530,815.260376 451.526855,814.299133 
	C448.475494,813.640564 446.854462,814.527893 446.116486,818.166199 
	C443.314056,831.982727 440.596954,845.867249 436.670776,859.384460 
	C434.594299,866.533386 436.662079,871.861938 438.583313,878.438171 
	C440.694000,885.662964 445.234436,892.064758 445.764862,899.755554 
	C445.854919,901.061462 446.083923,902.528748 446.760895,903.596863 
	C453.996826,915.013428 455.435059,928.933044 463.252258,940.261841 
	C468.365082,947.671326 471.536102,956.405396 479.249329,961.907288 
	C480.786041,963.003479 481.190674,964.594727 480.351715,966.338928 
	C479.217712,968.696533 480.015564,971.065491 481.735382,972.192566 
	C486.441895,975.277039 488.348053,980.831299 492.765747,984.023010 
	C495.500824,985.998962 496.886139,989.057739 499.144012,991.437195 
	C503.147736,995.656433 508.305878,998.030823 512.610168,1001.652832 
	C516.219177,1004.689697 520.915955,1003.494812 525.003174,1004.739990 
	C527.354736,1005.456360 529.878235,1005.600281 531.884277,1007.015320 
	C532.238281,1008.898987 530.344421,1008.565063 529.787354,1009.488464 
	C529.972717,1009.727417 530.118042,1010.122375 530.342773,1010.174377 
	C539.971497,1012.405273 549.465515,1015.617065 559.492065,1011.360535 
	C563.290955,1009.747742 563.705933,1007.998108 561.386719,1005.219238 
	C557.470093,1000.526367 555.688843,994.645691 551.791809,989.731384 
	C547.519165,984.343445 544.129761,977.555603 543.249573,970.109192 
	C542.646973,965.011292 538.068054,961.225769 538.182068,955.772217 
	C538.227417,953.599243 536.820251,951.178345 540.544922,950.348999 
	C542.519531,949.909363 541.848206,947.641846 541.780945,945.666748 
	C540.506165,946.734497 540.068604,949.122803 538.023560,947.980286 
	C535.764587,946.718262 533.754272,944.912781 534.068787,942.114685 
	C534.381165,939.335754 534.666443,936.147034 536.174255,933.980591 
	C542.262573,925.232544 544.463989,914.481323 551.038452,905.991150 
	C552.696167,903.850342 554.067322,901.680237 556.613831,900.545654 
	C558.472412,899.717590 560.030396,898.513794 561.226685,896.831787 
	C563.674377,893.390076 567.192139,891.462708 571.207397,890.840759 
	C573.479126,890.488892 576.448853,889.510437 577.269043,893.662354 
	C577.713684,895.913208 580.372314,895.695862 582.311035,895.634094 
	C590.289490,895.379822 598.266418,895.434448 606.157471,896.679138 
	C611.981018,897.597839 617.320618,899.494751 620.585999,905.124329 
	C622.325378,908.123169 627.181885,908.122009 628.893311,905.059631 
	C634.201599,895.560486 642.412842,888.832031 650.467896,881.978394 
	C658.934937,874.774170 669.266174,874.302917 679.707031,874.545776 
	C685.970581,880.681396 694.973145,877.214478 702.019775,880.875793 
	C704.031128,881.920837 705.762451,882.434021 706.351074,884.982422 
	C707.030884,887.925659 709.218323,890.110291 712.081787,890.742065 
	C718.440796,892.144836 717.922424,897.727234 720.590088,902.425537 
	C714.909485,902.402039 710.821045,900.357117 708.223938,897.201843 
	C702.513611,890.264465 694.400208,888.553101 686.697021,885.811646 
	C685.721191,885.464417 684.435608,885.984802 683.293945,886.107178 
	C680.520020,886.404297 676.786011,889.098572 678.171509,882.338684 
	C678.766724,879.434814 673.809448,878.429565 671.064758,879.542542 
	C665.606750,881.755615 659.662720,882.693237 654.601196,886.034302 
	C652.845459,887.193237 651.995972,888.633179 651.560730,890.337708 
	C650.697998,893.716064 647.933716,895.924255 645.307068,896.041321 
	C638.727600,896.334717 637.583984,902.276245 634.301270,905.706360 
	C630.025085,910.174377 630.441406,917.445923 626.092834,922.260986 
	C625.426331,922.999023 626.004822,924.838440 625.961853,926.166992 
	C625.852417,929.546631 623.180054,930.348877 620.776062,930.290955 
	C618.060852,930.225586 617.625610,927.713806 617.750488,925.415710 
	C617.872131,923.179321 619.100464,921.327026 620.182068,919.457397 
	C623.912476,913.009155 622.010803,908.809021 614.837952,907.938843 
	C611.612610,907.547607 608.694336,906.525330 605.896912,904.154236 
	C603.842285,907.025391 601.430481,905.580200 598.774780,905.420105 
	C592.522583,905.043396 587.333740,901.840393 581.583374,900.237671 
	C578.777344,899.455688 576.296570,900.122803 573.777405,900.850464 
	C571.084534,901.628296 568.557800,902.877747 565.582336,902.282898 
	C563.998047,901.966187 562.788879,902.958069 561.807373,904.251953 
	C558.804871,908.209717 555.717163,912.102783 552.703308,916.052124 
	C552.104126,916.837280 551.326477,917.987000 552.041321,918.781067 
	C555.822815,922.982300 553.341980,925.589172 549.936279,928.103394 
	C549.650208,928.314514 549.703857,928.985901 549.505493,929.857361 
	C553.071777,929.686523 555.988647,928.350159 558.876160,926.923523 
	C572.226624,920.327148 581.498352,921.558899 592.184387,931.356201 
	C595.175659,934.098694 596.396912,944.339966 593.867920,947.770874 
	C592.924011,949.051270 592.162964,950.083984 592.338745,951.728516 
	C592.860229,956.606628 592.084961,961.918274 590.161255,967.265869 
	C587.846558,966.697571 587.892761,964.560425 587.522705,962.946045 
	C585.571960,954.435486 583.724792,945.900146 581.945496,937.351868 
	C580.946411,932.551880 576.012878,929.926941 569.490540,931.675903 
	C564.235046,933.085266 559.293274,935.546814 554.670898,938.509216 
	C553.978638,938.952820 553.409607,940.078308 552.791321,940.072449 
	C545.921631,940.007385 548.532288,944.199158 548.983826,947.832336 
	C550.648560,961.226562 554.528259,974.063477 558.912415,986.717163 
	C562.203552,996.216125 566.091064,1005.585327 574.170776,1012.409363 
	C574.508240,1008.770142 570.239075,1007.126404 569.550293,1003.269714 
	C573.177429,1003.438599 574.606079,1005.718994 575.940979,1007.876282 
	C577.424561,1010.273926 578.441833,1012.967224 579.989746,1015.315857 
	C581.397339,1017.451843 582.885986,1020.342773 586.123413,1017.180481 
	C587.581238,1015.756531 589.122925,1016.320923 589.718323,1017.974670 
	C591.222412,1022.152527 594.582520,1023.622864 598.714966,1024.783691 
	C593.645081,1025.000000 588.290100,1025.000000 582.467590,1025.000000 
	C577.610107,1021.287048 572.340332,1018.634460 568.957581,1013.675720 
	C568.084351,1012.395813 566.128235,1012.055847 564.368652,1012.968750 
	C562.707520,1013.830627 562.614136,1015.085022 562.894287,1016.742676 
	C563.482239,1020.221619 561.797180,1020.912476 558.524963,1020.666565 
	C549.897034,1020.018372 541.096436,1020.089722 532.963623,1016.891541 
	C521.817810,1012.508606 509.607574,1011.153564 499.773254,1002.812012 
	C494.169037,998.058350 488.482117,993.865662 484.559967,987.483215 
	C480.611725,981.058350 474.182770,977.363708 467.513550,973.709167 
	C463.114227,975.978943 460.863037,980.830994 456.794647,983.687744 
	C455.580902,984.540039 454.574402,986.178467 453.045624,985.890564 
	C446.829865,984.719666 443.772369,989.372864 440.175110,992.786377 
	C438.067963,994.785950 436.146973,996.500305 433.117432,997.036865 
	C430.909973,997.427734 428.695587,998.273499 426.853821,999.884338 
	C422.814911,1003.416626 417.043213,1003.911926 413.046417,1007.614624 
	C412.033356,1008.553223 410.418243,1008.950989 409.292816,1008.146118 
	C403.154175,1003.756287 397.097839,1008.162781 391.031128,1008.288025 
	C388.064423,1008.349182 385.393005,1010.096375 382.647797,1011.755188 
	C379.167114,1013.858398 374.497833,1012.646057 370.700165,1010.919434 
	C367.706726,1009.558594 364.840729,1007.676697 362.324738,1005.546021 
	C347.754730,993.207703 339.197418,977.583618 336.820770,958.547668 
	C336.122192,952.952454 335.522369,947.132141 333.477478,941.969482 
	C330.667816,934.875977 332.308167,928.955933 335.723450,922.906250 
	C336.447357,921.623901 337.312012,920.205505 337.392395,918.808411 
	C338.280975,903.365601 348.242218,892.338013 356.806458,881.108459 
	C369.382233,864.618835 389.403015,862.961609 404.342102,876.599609 
	C405.980438,878.095276 407.686310,879.319763 409.679535,880.183350 
	C411.526825,880.983826 413.171051,880.528198 413.697510,878.571228 
	C415.630371,871.386353 421.404755,867.067688 426.005707,861.916382 
	C428.616547,858.993225 430.389191,855.445740 429.989105,852.008240 
	C428.854095,842.256287 433.179626,833.884888 435.795929,825.102051 
	C437.041412,820.921021 436.900146,816.607727 437.927551,812.397766 
	C438.625061,809.539612 434.546600,806.407471 432.877808,806.535828 
	C427.069458,806.982178 426.653229,802.850830 425.851990,799.437744 
	C422.314911,784.370361 422.480865,769.216980 424.933563,753.950256 
	C426.275635,745.596436 428.066589,737.055908 428.097931,728.805359 
	C428.127472,721.030762 431.266266,714.914856 433.621002,708.288757 
	C435.626434,702.645569 435.092682,697.037842 434.292023,691.548950 
	C433.174622,683.888733 435.538177,678.420532 442.965820,677.118347 
	C447.016602,676.408142 448.843231,673.652771 451.382294,671.547668 
	C460.411957,664.061279 471.349213,660.362488 481.836914,655.773804 
	C483.971283,654.839905 485.580963,653.985779 485.802399,651.320435 
	C486.232178,646.148376 489.502533,642.485291 493.200562,639.353149 
	C495.461365,637.438354 498.051361,636.135132 495.904907,632.586487 
	C495.011566,631.109619 498.055145,631.527893 497.539581,630.459534 
	C485.850739,624.741577 478.934479,614.722107 472.090057,604.962341 
	C463.698273,592.996033 454.672211,581.515747 446.174377,569.639648 
	C439.533661,560.358887 435.246460,550.122070 433.176819,538.906128 
	C431.807190,531.483887 429.223419,524.340271 430.274811,516.455078 
	C430.714508,513.157593 430.816864,509.989532 432.353516,506.951019 
	C436.590729,498.572357 439.440033,489.691223 441.611755,480.579041 
	C441.688416,480.257446 441.763855,479.910309 441.940765,479.641479 
	C447.519897,471.163513 451.787048,461.927856 460.337402,455.399902 
	C466.390778,450.778290 472.223969,445.936890 479.200653,442.965240 
	C486.958801,439.660767 493.861633,434.359467 503.004730,434.112213 
	C508.299072,433.969025 513.873169,424.477539 513.387573,418.931458 
	C512.895325,413.309082 511.293518,407.271820 512.753662,402.150696 
	C513.947876,397.962036 516.007141,393.689636 517.120300,389.313812 
	C518.914429,382.261322 520.898376,375.426971 524.656616,369.027588 
	C526.623169,365.679047 528.499939,361.517212 526.068054,357.168121 
	C525.389465,355.954620 525.884277,354.093994 527.061829,353.580048 
	C534.231079,350.451385 535.326477,342.720795 539.528381,337.370239 
	C543.189697,332.708160 545.787659,327.204071 549.500610,322.591309 
	C553.711243,317.360352 559.540894,313.735229 565.958862,312.136017 
	C572.938965,310.396759 579.181580,307.123596 585.743835,304.522614 
	C591.847534,302.103455 598.387634,301.927338 604.709351,300.654724 
	C610.711670,299.446411 616.948547,300.121429 622.986816,298.610352 
	C626.153259,297.817902 629.451721,297.790314 632.858154,298.418732 
	C636.375793,299.067657 640.049500,299.030548 643.742249,298.155029 
	C650.377197,296.581879 657.218079,297.541779 663.949890,297.206726 
	C669.948792,296.908203 675.807312,297.569275 681.722839,297.943848 
	C684.393311,298.112976 685.711182,297.005554 685.793274,294.215759 
	C686.120361,283.107605 690.348816,273.100006 696.675232,264.460785 
	C703.019531,255.796951 709.625610,246.572952 722.025330,245.404068 
	C725.463867,245.079941 728.536072,243.058228 732.106750,242.692825 
	C743.798889,241.496338 759.639404,251.311691 765.461060,262.039917 
	C773.537170,276.922791 774.452026,292.188812 773.002136,308.198517 
	C772.422607,314.597900 774.013977,316.617706 779.911316,318.827881 
	C786.838745,321.424103 793.974304,323.770538 799.903564,328.480194 
	C800.926880,329.292999 802.416504,330.349487 802.496460,331.385590 
	C803.056519,338.641846 808.525513,341.651093 813.311951,345.900604 
	C819.394470,351.300812 827.382202,354.530396 831.448914,362.538147 
	C833.504578,366.585968 838.278687,369.099945 843.279907,371.951324 
	C843.974243,364.214752 849.540588,363.678040 855.314636,362.417572 
	C860.263062,361.337250 865.083862,358.955780 869.517761,356.385040 
	C878.446350,351.208221 887.065674,352.321411 895.636902,356.777740 
	C900.357727,359.232147 904.885559,362.075195 907.961975,366.676331 
	C909.350098,368.752380 910.907593,370.704803 910.479797,373.455811 
	C910.177856,375.397125 911.253357,376.936737 912.005798,378.614563 
	C914.809021,384.865173 915.597107,391.278656 915.708191,398.272644 
	C915.821533,405.410065 913.067139,412.039673 913.838806,419.231964 
	C914.262390,423.180145 911.041382,426.767059 908.458862,430.131714 
	C903.250488,436.917145 901.401001,445.438538 897.352112,452.900330 
	C893.337463,460.299011 888.627502,466.523773 880.868591,469.942383 
	C876.245056,471.979553 872.529541,475.699524 867.085266,476.342163 
	C862.954956,476.829620 863.290955,480.829865 863.297852,483.951477 
	C863.316284,492.247314 864.405640,500.487488 864.449585,508.806091 
	C864.490173,516.494812 861.857178,523.492981 860.166077,530.735657 
	C859.198853,534.878052 858.755493,539.202820 856.319885,542.978577 
	C855.450500,544.326233 854.975159,545.949158 853.186646,545.299133 
	C849.855042,544.088074 848.888733,546.148987 847.527954,548.474365 
	C844.489868,553.666382 842.105774,559.103455 837.058228,563.209900 
	C832.818909,566.658813 830.526917,572.394592 826.666931,576.445312 
	C822.512634,580.804932 821.691223,587.362610 816.391418,590.893677 
	C815.221558,591.673096 814.187866,593.339661 814.088135,595.396790 
	C817.373779,596.098938 820.338684,594.907593 823.278625,594.046631 
	C849.216980,586.451599 875.714355,583.432190 902.639465,585.085022 
	C910.335999,585.557495 917.902466,587.983459 925.557556,589.351746 
	C930.576294,590.248779 935.709229,590.565979 940.744385,591.204773 
	C950.516968,592.444458 959.465759,595.577454 968.105164,599.780334 
	C970.768250,601.075928 973.053467,603.827209 974.683716,606.430420 
	C978.449890,612.444763 983.379089,617.816772 985.378601,624.867249 
	C985.694641,625.981934 986.155579,627.071289 986.673828,628.110352 
	C992.908508,640.610413 991.714111,647.952393 982.939575,658.819946 
	C978.867188,663.863831 974.294983,668.347900 969.980225,673.114685 
	C968.206726,675.073975 965.105225,674.370667 963.557068,676.786804 
	C965.023865,680.864624 968.169678,683.953735 970.004578,687.877869 
	C974.392761,697.262634 979.813232,706.174988 984.013977,715.634583 
	C989.122742,727.139282 995.028809,738.179443 1000.756104,749.347168 
	C1005.552612,758.699951 1006.552795,769.973389 1007.169983,780.798279 
	C1007.888367,793.400696 1008.079285,805.828613 1005.822815,818.479370 
	C1004.376038,826.590454 1005.466736,835.308716 1004.310913,843.697327 
	C1003.172119,851.962891 1001.681885,860.098389 999.081299,868.123596 
	C996.712341,875.433899 992.987427,882.566589 993.647705,890.658691 
	C993.896667,893.708801 992.297852,896.235413 990.753357,898.485107 
	C987.799805,902.787476 985.880249,907.525635 983.829346,912.240479 
	C982.376770,915.579712 983.697998,916.986206 987.025146,916.985779 
	C990.838501,916.985352 994.609436,916.426331 998.463623,916.564453 
	C1006.494385,916.852295 1013.553040,923.649719 1014.535950,931.872864 
	C1014.981079,935.596802 1014.489014,940.386902 1019.676392,941.971191 
	C1021.279297,940.144592 1020.709167,938.229980 1020.736145,936.473267 
	C1021.186218,907.155579 1021.091797,877.818542 1022.180786,848.525330 
	C1022.960571,827.547791 1022.025757,806.544067 1023.632324,785.597961 
	C1023.834961,782.956238 1023.479980,780.245789 1024.790405,777.355774 
	C1025.000000,859.666687 1025.000000,942.333313 1024.994629,1025.000000 
	C1023.325745,1025.000000 1021.662354,1025.000000 1019.485535,1024.531738 
	C1019.503113,998.817200 1020.034180,973.570923 1020.565247,948.324646 
	C1020.072083,948.256104 1019.578857,948.187500 1019.085693,948.118896 
	C1010.501343,961.128357 1000.033386,972.635986 990.310486,984.737793 
	C988.228760,987.328857 986.395691,990.123962 982.940674,991.150208 
	C969.437927,995.160889 955.712158,997.434998 942.146057,992.438965 
	C938.675476,991.160828 934.593323,992.853149 932.162964,990.347229 
	C925.039124,983.002136 916.412781,984.372864 907.603149,984.735474 
	C901.468811,984.987915 895.806213,987.949646 889.472900,987.042786 
	C887.287292,986.729858 884.292358,987.844604 882.605591,989.355042 
	C880.553101,991.192932 878.492737,991.397827 876.212341,991.298584 
	C870.056580,991.030457 863.970703,990.065674 858.085815,988.281738 
	C853.749023,986.967163 850.477966,984.158630 849.278198,979.546692 
	C847.296875,971.929871 844.317383,964.295044 849.184631,956.628967 
	C849.270447,956.493896 848.913635,956.077881 848.594971,955.473572 
	C845.959595,955.866150 843.208069,956.603394 840.451782,956.621216 
	C833.815063,956.664246 827.576294,960.038879 820.457886,957.515320 
	C816.262329,956.027893 811.152405,956.122498 806.203613,956.617615 
	C802.401001,956.998108 797.709229,958.905151 794.533813,956.913147 
	C789.252258,953.600098 783.374268,952.568298 777.740601,951.136169 
	C766.907166,948.382446 763.284119,946.959778 759.167114,957.047485 
	C759.106750,957.195251 758.948975,957.300232 758.861816,957.440674 
	C752.118347,968.302124 743.846130,977.659912 732.833008,984.434998 
	C728.343933,987.196655 727.448364,990.222351 729.918579,993.753113 
	C712.927795,1003.719482 694.367554,1008.510681 675.482056,1011.656433 
	C674.049316,1009.883484 676.247253,1008.926147 675.596191,1007.562073 
	C671.553772,1007.815002 667.281555,1006.114990 663.560059,1008.869812 
	C661.398621,1010.469849 658.968689,1010.860962 656.507935,1010.510254 
	C654.341980,1010.201721 652.665771,1010.973083 650.826416,1011.800110 
	C643.912720,1014.908569 639.211060,1020.968079 633.000000,1025.000000 
	C628.643127,1025.000000 624.286194,1025.000000 619.464661,1025.000000 
M720.981812,258.989349 
	C720.981812,258.989349 721.015564,259.010468 720.665161,258.484283 
	C719.596130,257.555298 719.247375,255.744461 717.052002,255.773087 
	C714.995056,257.300507 713.018433,259.395325 711.085632,261.301239 
	C707.544312,264.793243 704.914551,269.348511 705.456360,274.536224 
	C705.720459,277.065430 704.738586,277.665833 703.119019,278.657501 
	C698.805115,281.298828 695.213684,290.411041 696.442749,295.877869 
	C697.731750,301.611725 702.757019,298.987610 706.020020,299.529846 
	C713.684998,300.803650 720.974182,303.447571 728.886108,304.126740 
	C739.142456,305.007202 749.668152,306.128906 759.189880,311.006622 
	C761.527710,312.204163 764.135376,312.672943 766.990112,311.920288 
	C766.143738,305.315552 766.077332,298.938171 766.722595,292.556946 
	C767.099609,288.829254 766.440857,285.618835 762.217590,284.403351 
	C765.303711,274.809814 760.617004,267.755737 755.958618,260.229218 
	C753.579590,256.385315 749.347107,257.018036 747.349976,254.639435 
	C744.106689,250.776520 741.303284,251.057510 736.794312,251.703003 
	C730.867371,252.551468 724.519897,250.942490 721.778625,258.446930 
	C721.689880,258.689880 721.232239,258.798096 720.981812,258.989349 
M529.197327,663.958618 
	C521.192566,662.200195 513.268250,665.697937 505.222229,664.305908 
	C503.207489,663.957336 500.409576,664.579407 500.484711,667.488525 
	C500.636475,673.362732 499.562897,679.394836 503.194153,684.883423 
	C504.824554,687.347839 504.782257,692.672791 503.230591,693.004517 
	C496.985474,694.339783 499.362701,699.899475 497.288208,703.100647 
	C496.333374,704.574097 496.084625,706.613403 494.467865,707.648315 
	C488.382019,711.543884 487.203888,718.208923 485.385345,724.305420 
	C483.894867,729.302246 485.735535,731.513184 491.048981,732.705750 
	C492.380524,733.004517 493.227844,733.430847 494.246948,734.532349 
	C498.391479,739.011841 501.322296,744.353577 505.089935,749.061157 
	C509.087311,754.055908 513.656982,758.710938 514.562683,765.329956 
	C515.317566,770.846252 519.926514,775.557129 517.664856,781.705627 
	C519.960815,782.320496 522.359314,777.974854 524.607117,782.155823 
	C519.182739,784.574280 515.952759,788.228699 516.759949,794.395203 
	C516.900330,795.467773 515.856262,796.082642 515.096802,796.742676 
	C511.327881,800.018616 511.075104,804.409546 512.354614,808.590759 
	C514.081238,814.233093 515.561768,819.766541 515.497375,825.758728 
	C515.465027,828.767883 517.162720,831.453674 520.055359,833.072266 
	C522.234253,834.291321 524.457336,835.485901 526.450378,836.973267 
	C534.994995,843.350098 544.331421,845.495361 554.688965,842.572021 
	C555.133423,842.446594 555.506287,842.067627 555.811340,841.871704 
	C556.437073,840.223450 553.974731,839.207581 555.575378,837.131714 
	C559.273621,837.208069 563.355530,834.867432 567.528687,837.421936 
	C565.983948,840.691467 562.375732,839.468872 560.186646,841.019775 
	C560.947266,842.691223 562.111023,842.542542 563.296265,842.366089 
	C567.736023,841.704834 572.205627,841.202454 576.611694,840.365173 
	C588.359070,838.132751 600.101074,835.860901 611.800171,833.391296 
	C616.917114,832.311157 622.889404,833.003662 625.940613,826.906860 
	C626.472900,825.843262 628.864685,825.613708 630.622314,826.220642 
	C632.348267,826.816650 634.120178,827.356567 635.916016,827.658813 
	C641.425049,828.586121 647.878113,824.297791 647.217102,819.672546 
	C646.422607,814.113342 646.135559,808.365356 643.878357,803.096985 
	C639.813721,793.610046 638.354492,783.368896 635.216370,773.596802 
	C631.199951,761.089661 628.142517,748.483643 617.057190,739.629944 
	C610.299866,734.232971 605.267578,734.962402 601.909424,743.213440 
	C602.975830,744.987183 605.841614,744.362061 606.717224,747.310547 
	C602.618652,749.635376 598.171875,751.736389 594.193054,754.508972 
	C587.453735,759.205200 579.366821,762.006409 574.237976,769.041504 
	C572.320557,771.671570 568.405151,772.269531 565.949707,771.179138 
	C558.554688,767.895020 551.422424,768.422852 544.075256,770.748047 
	C538.569153,772.490662 533.511841,770.571106 528.236389,768.407471 
	C533.190063,766.997437 535.060852,759.116089 542.129578,762.439880 
	C542.942505,762.822144 544.173584,762.705200 545.087280,762.421692 
	C552.698486,760.059875 560.206238,760.527161 567.672729,763.030884 
	C570.203674,763.879517 572.755249,763.193359 573.931763,761.162781 
	C577.313416,755.326416 583.399475,753.693787 588.797119,751.246216 
	C594.876709,748.489258 598.184570,745.153259 597.800293,738.539062 
	C597.571838,734.605164 599.445923,732.028320 601.722351,729.837036 
	C605.654785,726.051575 610.033508,722.703064 614.396912,719.398193 
	C620.880859,714.487061 628.958313,712.241150 635.495117,707.562317 
	C648.569519,698.204041 663.000549,692.428894 678.623596,689.276611 
	C680.429993,688.912109 682.484619,688.296204 683.840088,689.831360 
	C686.404297,692.735352 690.108643,693.397522 693.158081,695.246826 
	C696.083984,697.021179 699.915100,697.625305 701.872253,700.738770 
	C703.803894,703.811584 705.816345,706.510559 711.017029,706.249512 
	C707.244873,709.453491 709.012451,711.845703 710.429932,714.209045 
	C711.371094,715.778259 712.160156,717.675842 713.552734,718.694824 
	C718.768311,722.511353 717.181763,727.758057 716.897583,732.748291 
	C716.813049,734.231934 716.252014,735.698242 716.242065,737.174744 
	C716.163208,748.911560 711.799438,759.417419 705.390747,768.711914 
	C701.000549,775.079041 700.044739,783.977051 692.015076,787.799866 
	C691.541443,788.025452 691.389709,788.934875 691.096436,789.530090 
	C689.467346,792.836243 687.185547,795.575623 684.561035,798.199219 
	C679.206726,803.551514 673.240234,808.241943 669.787781,815.500000 
	C667.879028,819.512756 666.562988,824.521240 661.161133,826.553833 
	C656.285645,828.388367 651.202087,830.086426 646.959351,833.395569 
	C646.047974,834.106445 644.889526,833.706543 644.268188,832.893921 
	C642.409058,830.462769 640.659973,831.641907 638.612122,832.646973 
	C635.074890,834.383118 631.350220,837.799988 627.583008,836.360718 
	C621.823730,834.160339 618.350403,837.721130 613.810242,839.224854 
	C615.138855,841.723938 616.843201,840.805664 618.444275,840.823059 
	C624.561096,840.889465 630.767212,838.350586 636.741272,840.638916 
	C641.341675,842.401062 645.760681,842.622437 650.605103,842.366211 
	C654.249023,842.173523 657.226685,840.409607 660.557800,839.937378 
	C672.461670,838.249939 683.833069,835.339661 693.756165,828.117432 
	C696.137024,826.384705 699.321472,825.915771 701.322693,823.476685 
	C705.144592,818.818665 709.786316,815.102844 714.916748,812.000122 
	C721.600952,807.957703 728.128418,803.722046 734.432678,799.073120 
	C737.404480,796.881592 739.732239,792.653442 743.729919,792.981018 
	C748.609436,793.380981 750.308044,790.305298 751.963074,787.184143 
	C753.583984,784.127319 750.905090,781.995239 749.297913,779.741150 
	C745.478638,774.384705 741.036804,769.345337 738.038635,763.560059 
	C733.493164,754.788818 733.916565,744.912354 733.580811,735.274902 
	C733.290771,726.947937 739.354797,720.963623 741.378235,713.429504 
	C742.410583,709.585754 741.631958,708.197693 738.635315,707.024719 
	C735.077087,705.631897 731.412537,704.510498 727.857178,703.111084 
	C725.417908,702.150940 723.774109,700.525269 724.274658,697.668335 
	C726.606934,696.672729 728.196472,697.791016 729.820312,698.524170 
	C734.960938,700.845459 740.595032,700.364380 745.956665,700.961365 
	C751.428772,701.570679 756.796204,696.727661 757.790466,692.067688 
	C759.146667,685.712097 754.947205,673.779419 749.757141,672.497070 
	C741.262207,670.398132 733.083252,664.439087 723.650635,669.026978 
	C722.372559,669.648682 721.490234,668.477173 720.429382,668.136353 
	C716.705139,666.940125 712.996338,666.833435 709.220886,667.955933 
	C708.308655,668.227173 707.138611,668.326660 706.285339,667.995056 
	C695.492249,663.800842 684.862854,667.308167 673.575928,668.436401 
	C676.632324,670.967468 680.225098,669.688110 683.431885,671.105835 
	C679.003479,674.517151 674.057556,672.478027 669.727722,674.251709 
	C668.786682,672.389954 668.257324,670.575928 665.955505,670.371460 
	C658.148010,669.678162 650.364075,668.700012 642.550110,668.106567 
	C634.837097,667.520874 627.066162,668.232605 619.383362,667.895020 
	C612.110352,667.575500 604.896667,666.651367 597.623413,667.722778 
	C596.171326,667.936646 594.870117,668.959106 593.272461,668.417236 
	C586.615295,666.159485 579.798035,667.290588 573.037048,667.604004 
	C571.534668,667.673706 570.158447,667.985291 568.695251,667.248047 
	C562.731079,664.242981 556.520691,663.399536 549.978027,665.148926 
	C548.320129,665.592224 546.651672,666.160706 544.918579,664.457947 
	C541.863831,661.456665 534.201599,661.437012 529.992065,664.005737 
	C529.992065,664.005737 530.003540,663.986267 529.197327,663.958618 
M779.919495,614.436523 
	C782.777771,610.993347 787.878235,610.620056 790.583008,607.738220 
	C795.528931,602.468628 800.413818,597.006531 804.271301,590.711853 
	C807.799866,584.953918 811.924316,579.528625 816.112976,574.214294 
	C826.244263,561.360474 838.833435,550.403748 846.669250,535.800171 
	C853.033508,523.939087 859.216675,511.850769 855.675903,497.524200 
	C854.610535,493.213409 853.426331,488.855133 854.661804,484.301025 
	C855.011353,483.012451 854.384705,481.722137 853.792297,480.483063 
	C851.088867,474.828796 851.765930,473.273743 857.108459,469.706146 
	C862.731750,465.951019 869.062256,463.199127 874.041382,458.560547 
	C884.212524,449.085083 896.103271,441.422577 899.361572,425.833801 
	C900.670471,419.571655 903.455627,412.800720 906.442200,406.549072 
	C910.985901,397.038239 909.919800,387.161224 905.645264,377.855957 
	C902.917053,371.916809 896.496948,368.827423 892.803772,363.427429 
	C891.690735,361.800049 889.338379,360.759705 886.946594,361.732452 
	C885.710754,362.235016 884.667664,361.843964 883.692322,361.100159 
	C880.388916,358.580933 878.512695,360.907349 876.944397,363.311249 
	C876.444153,364.078033 876.631531,365.260651 875.265808,365.242737 
	C871.961609,365.199310 869.668640,366.997986 867.721436,369.400177 
	C866.873291,370.446442 865.903442,370.957092 864.754395,369.978790 
	C863.624634,369.017029 863.992249,367.956238 864.746887,366.890381 
	C865.218567,366.224121 866.675781,365.811981 865.294617,364.319336 
	C861.277222,366.897308 857.866272,370.203979 854.805420,373.272461 
	C853.020569,373.987946 852.979553,371.576172 850.957764,372.331726 
	C850.057800,375.517426 845.530823,377.023621 844.897095,380.368500 
	C843.184082,389.410522 842.761230,398.694092 841.116638,407.752960 
	C840.008423,413.857147 841.748962,419.854004 841.103149,425.903351 
	C834.524231,425.076202 831.517212,422.308960 832.407959,417.802032 
	C833.605530,411.742310 832.763367,405.604828 833.542175,399.462646 
	C834.453857,392.271881 832.437439,384.671051 838.353760,378.652954 
	C839.454224,377.533630 839.378540,375.698090 838.178894,375.104401 
	C832.695007,372.390411 830.303894,366.479340 825.243652,363.202942 
	C821.019287,360.467773 815.473877,359.287872 812.875244,354.436005 
	C811.627991,352.107300 810.021301,350.443054 807.880127,349.062927 
	C795.879944,341.328064 782.724426,335.630127 770.738403,327.824615 
	C766.693604,325.190582 762.883301,321.970001 758.851379,319.817688 
	C752.839417,316.608429 746.065857,314.380859 738.732117,313.995392 
	C734.452698,313.770386 729.697144,312.236633 725.709106,310.299438 
	C721.561646,308.284851 717.325745,307.627960 713.171021,306.500702 
	C710.323730,311.518036 707.580017,312.379974 706.123840,308.811218 
	C704.661743,305.228058 703.202148,304.754242 700.336792,307.110382 
	C699.781433,307.567078 698.620483,307.873810 698.026367,307.607819 
	C690.759277,304.354523 683.369995,307.725372 676.052063,307.178040 
	C673.878357,307.015442 670.107483,309.274933 669.623718,308.598145 
	C666.983521,304.904388 663.256409,306.229736 660.008484,305.738861 
	C654.433899,304.896454 648.779114,304.112122 643.159973,304.638306 
	C635.802673,305.327332 628.653442,307.188568 621.027588,305.974548 
	C617.885010,305.474274 613.291687,305.022980 610.089966,308.507629 
	C612.665833,310.662354 615.923828,307.730133 617.736328,310.604706 
	C617.390747,310.928619 617.179626,311.306519 616.916321,311.347260 
	C606.758972,312.919403 596.675537,315.465271 586.255188,313.591553 
	C584.733459,313.317932 583.007263,313.796997 582.151367,314.984070 
	C580.101440,317.827301 577.097900,318.707245 574.034424,319.437012 
	C557.847107,323.292908 547.905640,334.400116 541.805969,348.856659 
	C539.913940,353.341003 538.776428,357.555298 534.609009,360.454803 
	C533.524170,361.209625 533.044556,362.957825 532.495789,364.333069 
	C531.449585,366.954773 530.729004,369.716064 529.564758,372.279327 
	C524.831421,382.701019 523.483826,393.976135 522.708069,405.066986 
	C522.155151,412.972473 521.244263,420.728058 519.706909,428.436249 
	C518.633545,433.817688 515.786926,437.706085 509.891602,438.985962 
	C498.645569,441.427490 488.774017,446.502441 480.332031,454.522430 
	C477.544006,457.170990 474.178925,461.233154 470.476929,460.481689 
	C466.643921,459.703644 466.172363,461.917969 464.269714,463.464478 
	C460.220276,466.755890 459.527008,472.045410 456.368347,475.743835 
	C453.942871,478.583771 452.121582,481.776031 450.965118,485.152435 
	C447.764587,494.496704 443.163727,503.339020 440.937317,513.022400 
	C439.233154,520.434448 436.870544,527.858154 441.073547,535.254578 
	C443.445984,539.429565 443.919861,543.790405 443.325989,548.630493 
	C442.883240,552.238403 444.271454,555.888855 447.759644,558.093872 
	C451.689301,560.577942 454.139557,564.301575 455.660095,568.489685 
	C458.550140,576.449951 463.993042,582.697266 469.045807,589.194946 
	C470.727081,591.356995 473.870605,591.813538 475.582886,594.383545 
	C481.291565,602.951965 487.667572,611.000244 494.471344,618.767700 
	C498.164093,622.983459 502.825684,626.605957 505.766937,630.907043 
	C509.789490,636.789246 514.480286,642.151123 518.449036,648.050110 
	C521.715393,652.904968 527.111816,656.376831 532.195190,657.129028 
	C541.713989,658.537354 551.562317,657.725159 561.273682,657.821838 
	C566.114685,657.870056 570.946899,657.920105 575.467590,660.037048 
	C577.173767,660.835999 578.988037,660.956726 580.847351,660.777161 
	C594.409607,659.467224 607.998840,661.220947 621.631958,660.039551 
	C631.032837,659.224792 640.619690,658.044556 650.209045,659.777893 
	C658.375000,661.253784 666.699524,658.972900 674.918823,660.295227 
	C675.301697,656.052979 677.487061,654.952881 683.324890,656.582764 
	C690.237366,658.512695 697.213562,659.980347 704.358704,660.477417 
	C710.168762,660.881592 716.031006,658.916687 721.773621,660.113586 
	C732.078857,662.261536 740.289978,658.831421 747.600891,651.834961 
	C759.389526,640.553589 768.620239,627.075867 779.919495,614.436523 
M768.249146,866.041199 
	C769.575928,868.301575 767.864746,871.055603 770.043396,873.517334 
	C771.642517,875.324219 771.991760,878.510925 772.280762,881.150330 
	C773.020447,887.905884 774.863159,894.558228 774.253479,901.454041 
	C774.096436,903.230225 775.104370,904.650269 776.369324,905.809204 
	C778.256409,907.538147 778.547913,909.574219 777.281799,911.662415 
	C775.212769,915.074951 774.867798,918.986084 774.512512,922.696533 
	C774.152893,926.451111 772.768372,929.330383 770.430420,932.049011 
	C768.704102,934.056519 766.398987,936.260803 767.660522,939.068604 
	C768.915222,941.861084 772.082947,941.557434 774.729675,941.703979 
	C788.833191,942.485107 802.847534,944.149414 816.862427,945.843506 
	C820.555359,946.289856 823.621338,948.666565 827.395142,948.785522 
	C839.406372,949.164185 851.315002,947.676697 863.098755,945.900635 
	C871.896484,944.574524 880.417603,941.422974 889.067993,939.106750 
	C895.403259,937.410278 901.661926,937.349976 907.826477,939.944336 
	C910.871582,941.225891 916.321777,939.687012 916.372803,937.229797 
	C916.492676,931.461731 919.970459,926.753357 920.378601,920.952942 
	C921.325256,907.496765 924.293030,894.239563 924.701721,880.673340 
	C924.974670,871.615479 927.271912,862.633362 925.907166,853.499329 
	C925.059753,847.828064 925.007812,847.847412 920.274780,851.184509 
	C919.750000,851.554443 919.073059,851.960205 918.479736,851.941223 
	C913.867798,851.793640 909.806702,852.971313 905.910278,855.640442 
	C904.378357,856.689819 901.620300,856.542419 899.591919,856.119202 
	C897.227905,855.625977 895.064880,855.833923 892.749451,856.096436 
	C886.494202,856.805542 880.095398,858.594299 873.956421,856.675293 
	C870.237915,855.512878 866.931763,855.570435 863.326172,856.261475 
	C858.268311,857.230957 853.197449,858.263550 848.082764,858.747620 
	C845.677856,858.975281 841.981140,859.836914 840.985535,857.051697 
	C839.590881,853.150085 837.017639,853.220093 833.946350,853.119751 
	C829.323975,852.968750 824.736572,853.333740 820.049744,852.845947 
	C816.153503,852.440308 812.801575,850.490295 808.979980,850.379822 
	C800.652222,850.139221 790.654236,846.572754 783.123596,843.456421 
	C776.091736,840.546509 769.371948,836.868469 762.099487,834.551331 
	C758.595642,833.434998 757.086975,834.892273 757.796448,838.586975 
	C758.712585,843.357910 760.567505,847.790649 762.582153,852.189392 
	C764.554749,856.496338 766.278076,860.917480 768.249146,866.041199 
M384.825256,953.777222 
	C382.685486,951.685913 382.796082,949.276794 383.246613,946.475403 
	C385.454651,932.745850 387.400299,919.062134 381.837433,905.482544 
	C379.301697,899.292419 374.298340,896.341125 366.583527,895.428223 
	C361.314880,894.804810 354.357239,899.350281 352.512909,904.433167 
	C349.737091,912.083130 347.208740,919.822510 344.518280,927.503906 
	C342.955780,931.964844 343.863586,936.802673 345.273682,940.538513 
	C346.717255,944.363281 346.188385,945.758972 343.856262,946.811035 
	C346.165680,957.105652 346.569031,967.241943 350.337219,977.033020 
	C354.260406,987.226746 360.160461,995.072876 367.206268,1003.012024 
	C370.894836,998.198914 376.193604,999.710449 379.825775,1000.219421 
	C393.285461,1002.105530 405.767578,997.235229 418.736237,996.149536 
	C422.036896,995.873169 424.939240,994.639832 427.286560,992.497192 
	C431.819550,988.359558 436.342438,984.555969 442.231750,982.117554 
	C451.571136,978.250610 458.968964,970.803894 468.404297,966.883423 
	C470.447083,966.034607 470.199982,964.304932 469.000610,962.319031 
	C461.704193,950.237976 454.359802,938.152771 448.277893,925.415039 
	C443.695251,915.817383 439.038757,906.246216 435.039825,896.343140 
	C432.577484,890.245300 429.093842,884.655334 428.871552,877.809998 
	C428.835236,876.691956 428.150269,875.233704 426.810883,874.585815 
	C422.928223,876.262634 416.484436,885.792786 417.461334,889.265991 
	C418.746033,893.833557 420.022491,898.674988 422.572876,902.565918 
	C431.467773,916.136108 430.017395,929.366211 422.498199,942.734924 
	C421.546997,944.426147 420.740356,946.982056 418.244507,945.814636 
	C415.797241,944.669922 416.848694,942.079956 417.837921,940.558533 
	C423.388397,932.022034 421.487885,922.637085 420.966278,913.501770 
	C420.778381,910.211548 419.872955,906.192993 414.583527,907.088074 
	C414.471588,900.273987 412.502930,894.584106 408.689484,889.227051 
	C406.454193,886.087097 403.370453,883.968384 400.566925,882.167297 
	C395.841400,879.131226 391.100983,875.643433 385.329559,874.397644 
	C376.110107,872.407471 369.888153,878.095703 363.507172,883.036987 
	C361.823059,884.341125 359.714233,886.416504 360.996399,889.817627 
	C367.954895,888.094299 374.127747,890.196106 380.041931,893.443665 
	C383.003937,895.070129 386.258820,897.011780 386.826996,900.346008 
	C387.592773,904.839966 389.836761,908.826782 390.456512,913.280396 
	C390.806885,915.798340 393.200958,917.467102 393.025146,920.195557 
	C392.323425,931.084839 391.673767,941.978638 388.913727,952.602112 
	C388.388672,954.623047 387.875824,957.015076 384.825256,953.777222 
M651.031006,790.707153 
	C651.436218,800.866272 651.745300,811.037537 654.195007,821.529663 
	C655.800415,820.650391 656.664917,820.225891 657.480408,819.722168 
	C662.023071,816.915955 667.124146,814.485718 664.990540,807.502197 
	C664.626099,806.309570 665.457214,804.899597 666.715515,804.874268 
	C672.399536,804.759521 674.769104,799.931885 678.195129,796.809082 
	C684.860413,790.733704 691.033386,783.668457 694.470581,775.596619 
	C699.367249,764.097473 707.311401,753.826904 708.479553,740.621399 
	C709.053223,734.136108 708.113220,728.600098 704.815918,723.289856 
	C704.026367,722.018372 702.847046,720.972229 702.924500,719.351257 
	C703.148682,714.661743 700.463623,711.451904 697.692444,708.096558 
	C695.311035,705.213135 691.235107,705.096863 689.049011,702.435608 
	C686.770569,699.662048 684.772278,697.592773 680.804138,698.919250 
	C679.506531,699.352966 677.691711,699.019409 677.245789,697.061707 
	C676.974915,695.872559 676.057007,695.024048 675.153809,695.488159 
	C669.759949,698.259705 663.420532,697.068604 658.008789,699.903503 
	C647.344910,705.489563 636.871277,711.403687 627.051697,718.351257 
	C622.680176,721.444275 617.477173,723.640564 614.267639,728.837036 
	C615.409607,730.768005 616.445740,732.798340 618.281677,734.671021 
	C620.283081,736.712524 623.318604,737.379272 624.758728,739.836243 
	C627.628601,744.732239 631.772522,748.574158 635.225891,752.981567 
	C637.236633,755.547852 639.050964,758.025269 639.542725,761.578918 
	C640.217102,766.451660 640.557373,772.121582 644.350403,775.399048 
	C647.223145,777.881348 648.043823,780.677490 649.111755,783.717346 
	C649.822449,785.740417 650.357117,787.825317 651.031006,790.707153 
M430.472778,784.289307 
	C431.966888,789.004333 432.661438,793.984497 434.973999,798.653137 
	C436.202545,797.388306 434.281219,795.269958 436.707489,794.705933 
	C439.110107,795.492798 439.314850,797.914185 439.709473,799.875366 
	C440.811401,805.351685 444.163513,807.049316 449.482819,807.870422 
	C459.784576,809.460571 470.158569,808.831848 480.254486,808.029480 
	C487.506165,807.453003 496.127655,807.124878 501.665192,799.984009 
	C503.687958,797.375610 504.468781,794.374878 505.866943,791.579529 
	C509.165192,784.985229 509.530518,777.707153 509.095947,770.737610 
	C508.668518,763.881958 504.321960,757.845764 500.000275,752.843079 
	C492.415649,744.063293 482.813995,737.899780 470.917480,735.971069 
	C467.178772,735.364990 463.631927,733.822021 462.368164,729.756165 
	C463.512604,727.803345 465.187500,728.557617 466.531708,728.173279 
	C469.341522,727.369812 472.303955,729.111328 474.790497,727.923401 
	C478.208344,726.290588 479.062073,715.311218 476.775116,712.144836 
	C471.671967,705.079285 462.403137,706.367981 457.018768,701.246582 
	C454.760651,702.073547 456.018036,704.218811 454.275360,704.766052 
	C452.078278,704.883057 449.419861,701.554443 447.418121,705.333618 
	C445.711517,708.555603 441.539398,711.372864 446.212494,715.551819 
	C447.628052,716.817627 446.073792,718.346558 444.855103,719.234131 
	C441.313934,721.812805 440.439301,726.806519 441.001923,729.423950 
	C442.031799,734.215332 439.149536,734.852600 436.729492,735.570679 
	C433.354523,736.572144 432.780884,738.575500 432.867401,741.485535 
	C432.911224,742.960876 432.983582,744.533386 432.554138,745.909424 
	C428.698273,758.264465 430.030487,770.920593 430.472778,784.289307 
M867.301270,983.509888 
	C871.921570,982.265015 875.275940,986.578125 879.943970,986.430176 
	C880.818359,984.277100 882.321533,982.744141 884.589661,981.765808 
	C893.462585,977.938782 902.366028,974.743835 912.355164,975.820068 
	C916.902649,976.309998 921.569946,977.121094 926.185303,975.522705 
	C927.299011,975.136902 929.021973,975.363464 930.028748,975.999084 
	C937.526855,980.732971 946.589844,982.071350 953.921021,987.101685 
	C957.088867,989.275269 960.036682,989.108765 963.141541,986.912292 
	C966.207031,984.743530 969.139038,980.827576 973.301941,985.390198 
	C973.493042,985.599609 974.295410,985.445190 974.698547,985.237671 
	C979.622925,982.701599 984.162903,979.595398 987.466614,975.091980 
	C992.949646,967.617981 997.972717,959.612488 1005.269653,953.869812 
	C1010.747986,949.558472 1012.006714,944.929749 1010.104431,938.754150 
	C1009.663757,937.323425 1009.386597,935.842590 1008.958496,934.407471 
	C1008.842224,934.017944 1008.449402,933.710999 1008.214417,933.406250 
	C1006.645081,934.105957 1007.739685,936.182617 1005.893250,936.761047 
	C1004.760071,935.510315 1003.615479,934.117859 1002.331848,932.868225 
	C1001.150452,931.718201 999.635193,930.032532 998.039734,931.085632 
	C993.295288,934.217468 988.068237,932.671753 983.064331,933.283447 
	C979.419434,933.729065 978.276184,932.237488 977.942627,929.208801 
	C980.214722,926.664551 985.694031,929.362122 985.885132,923.991516 
	C983.699402,922.744873 981.365356,922.647278 979.538269,923.747681 
	C974.598877,926.722839 968.861633,928.111816 964.227356,931.639954 
	C963.126404,932.478088 961.876099,932.981506 960.491455,932.677856 
	C957.210938,931.958313 955.162659,933.503296 953.411194,936.083374 
	C949.181763,942.313599 942.113464,944.563293 935.952332,947.988464 
	C934.163940,948.982849 930.465393,949.112732 931.802124,945.240784 
	C933.090149,941.509888 931.249695,938.196594 932.152771,934.806458 
	C928.743225,933.633362 926.902100,934.659058 925.058105,937.256348 
	C922.291077,941.153748 921.263184,948.864319 913.290955,943.876953 
	C912.973999,943.678589 911.888489,944.547363 911.260132,945.044128 
	C910.189270,945.890869 909.067932,946.401978 907.670776,946.591370 
	C895.422852,948.251404 882.991760,948.440674 870.906067,951.461182 
	C864.300720,953.112000 860.958862,958.615967 857.628113,963.346741 
	C855.571350,966.268188 856.660095,971.382019 856.268127,975.505066 
	C855.965942,978.685425 857.630005,980.563171 860.341492,981.612000 
	C862.349915,982.388916 864.475708,982.862305 867.301270,983.509888 
M978.012024,626.808228 
	C975.362793,619.064026 966.710144,616.917603 962.655701,610.432678 
	C962.198303,609.701111 960.337585,609.193542 959.433289,609.496094 
	C950.792725,612.386902 944.412903,606.239685 937.582214,603.404846 
	C929.716675,600.140564 921.436768,600.839417 913.541016,598.575256 
	C910.077820,597.582092 905.669373,596.986328 901.770813,597.637268 
	C889.910706,599.617981 878.229370,597.079651 866.529480,596.287903 
	C856.424988,595.604248 847.161438,598.177551 838.268677,601.700378 
	C831.403625,604.419922 824.871277,608.184753 817.852722,610.723511 
	C815.317993,611.640442 812.099915,610.575256 810.632751,613.427063 
	C807.241821,612.683960 807.187073,609.988770 806.646606,607.363403 
	C802.927979,609.287292 798.310059,608.821228 796.717163,613.613647 
	C799.639465,616.612183 803.508301,617.987976 806.618347,620.428772 
	C811.677124,624.398865 814.030212,624.115173 817.965637,618.959229 
	C819.466919,616.992249 820.478638,613.940491 822.871643,613.513245 
	C829.031799,612.413513 833.696167,608.258667 839.608032,606.408447 
	C857.702332,600.745667 876.283325,601.075745 894.719116,600.977600 
	C903.825378,600.929077 913.174805,602.487610 922.346252,604.270569 
	C928.648010,605.495544 932.761047,609.288147 936.808838,613.275879 
	C939.046143,615.480042 939.687317,618.694092 938.611572,622.462830 
	C937.607361,625.980896 934.371277,629.012390 935.888123,633.281921 
	C937.547058,637.951538 937.430054,643.171265 940.268921,647.504944 
	C941.175842,648.889404 940.933777,650.139526 939.923706,651.603821 
	C937.772705,654.722046 935.760315,657.967346 934.023010,661.331909 
	C931.745178,665.743164 933.910461,670.410828 938.230347,670.193787 
	C951.940063,669.505005 964.521362,665.503784 974.211426,655.343323 
	C976.056091,653.409119 977.554138,651.732178 980.010620,650.517822 
	C983.138306,648.971741 984.020325,645.361877 982.274963,642.780518 
	C979.065430,638.033813 979.036560,632.777710 978.012024,626.808228 
M996.322266,795.459229 
	C998.105286,789.816345 997.557983,783.940613 997.753296,778.185852 
	C997.958618,772.137207 998.097290,765.854675 996.738342,760.030640 
	C993.463867,745.997498 984.237671,734.633240 978.254639,721.777222 
	C976.238892,717.445984 972.294373,716.665710 968.068481,718.661621 
	C964.748657,720.229675 961.419800,721.586975 957.828552,722.485657 
	C952.110352,723.916565 951.681641,725.548889 952.773010,731.387512 
	C955.097900,743.825378 961.281372,755.556885 959.663391,768.740112 
	C959.513184,769.963806 960.009033,771.622498 961.219788,772.271545 
	C965.758789,774.704834 968.794922,778.585205 971.960632,782.466370 
	C974.212524,785.227234 976.988342,784.216370 978.141479,780.677124 
	C979.150757,777.579468 977.289001,774.852234 977.233765,771.902649 
	C977.194763,769.824585 975.862183,767.083862 978.192017,765.988342 
	C980.518799,764.894348 983.617004,765.045105 985.834229,766.590942 
	C988.659973,768.561035 989.263123,771.829895 988.738403,775.094727 
	C987.822083,780.796082 986.608948,786.449280 985.658264,792.145752 
	C984.090637,801.539429 987.055908,810.983398 985.350342,820.432678 
	C984.806824,823.443726 985.614197,826.782898 989.860413,826.661804 
	C993.526733,826.557373 995.292175,824.582703 995.722961,820.667969 
	C996.618591,812.529053 995.029480,804.389526 996.322266,795.459229 
M905.993347,616.491394 
	C909.926697,614.518005 913.719849,614.402710 917.756653,616.564880 
	C919.893738,617.709534 922.508118,617.999207 924.934998,618.551514 
	C926.156738,618.829529 927.332214,618.436523 927.848083,617.189148 
	C928.438599,615.761169 927.437622,615.020752 926.316406,614.528442 
	C922.369202,612.795288 918.388977,610.799927 914.054749,610.690552 
	C903.244202,610.417786 892.624695,608.518738 881.671692,608.535889 
	C868.193359,608.556946 855.338806,611.279175 842.459412,613.607971 
	C834.183105,615.104492 827.738892,622.249390 820.800171,627.315002 
	C818.113525,629.276367 820.507385,631.316833 822.362061,632.293579 
	C824.683594,633.516235 827.354370,634.054382 829.807068,635.053101 
	C839.506348,639.002869 849.279846,643.146301 859.927979,642.726501 
	C866.153015,642.481140 872.353760,642.108032 878.804138,642.860107 
	C876.245544,637.445312 878.928162,633.865845 882.232910,630.930542 
	C889.051086,624.874634 896.132385,619.098938 905.993347,616.491394 
M962.007080,923.464355 
	C968.701721,920.706665 974.913879,918.515259 976.171570,909.183716 
	C977.246460,901.208862 981.810242,893.743652 984.458435,885.926880 
	C986.098511,881.085999 986.397339,875.725403 988.433655,871.097656 
	C992.738159,861.314941 994.030640,851.030945 994.913269,840.609619 
	C995.105713,838.337708 995.029602,835.943298 993.131165,834.156860 
	C985.284851,835.378296 978.172485,838.192505 971.195679,841.840210 
	C968.627563,843.182922 967.641846,843.893677 967.986389,846.711243 
	C968.420349,850.259155 969.188538,854.149536 964.280151,855.689880 
	C963.307922,855.994934 963.263184,857.352295 963.260254,858.348816 
	C963.241821,864.681580 962.097412,870.907654 961.545227,877.175354 
	C960.303833,891.265625 958.590332,905.262390 955.985718,919.155823 
	C954.952454,924.667480 955.684448,925.330261 962.007080,923.464355 
M480.015564,708.393372 
	C481.929749,709.152405 483.520782,708.339417 484.241791,706.758911 
	C486.649414,701.481079 490.916565,697.657898 494.359314,693.190430 
	C497.262238,689.423462 498.444061,685.479858 496.255493,680.672913 
	C494.836090,677.555359 494.293945,673.978882 493.739197,670.546570 
	C493.320740,667.957275 492.243286,665.779358 490.738770,663.785034 
	C488.289856,660.538757 485.564148,659.544434 481.806213,662.264893 
	C478.879791,664.383301 475.585571,666.910400 472.221466,667.314880 
	C465.392853,668.135986 461.773621,672.987122 457.317261,676.950623 
	C452.488159,681.245728 448.869080,685.516235 457.500977,689.612854 
	C461.494568,699.666565 470.975403,703.226379 480.015564,708.393372 
M952.793152,715.960693 
	C957.679565,716.001160 961.524719,712.962036 965.864929,711.411743 
	C968.215454,710.572205 967.972778,708.401611 966.766235,706.388489 
	C964.811096,703.126282 962.980896,699.815979 961.320862,696.364441 
	C959.000854,691.540771 958.507935,686.206726 956.251709,681.408020 
	C955.079956,678.915710 953.536865,677.540649 950.852478,678.419373 
	C947.257812,679.595886 943.613403,679.351196 939.990356,679.093262 
	C935.718506,678.789001 933.820435,679.754333 934.985718,684.680359 
	C937.362915,694.729309 942.586670,703.618042 946.025391,713.222900 
	C946.930847,715.752197 949.057678,717.154907 952.793152,715.960693 
M968.197998,790.487793 
	C966.706726,788.236328 964.841614,786.505798 961.527039,785.638489 
	C962.812317,790.445068 962.132019,794.923035 962.753601,799.256348 
	C964.038635,808.214844 967.025696,816.942017 966.212097,826.179077 
	C966.140808,826.987915 966.244934,827.873596 966.512451,828.637817 
	C967.041748,830.149902 967.238770,832.249084 969.344910,832.241150 
	C971.070251,832.234558 972.482544,830.895386 973.161316,829.383789 
	C973.747375,828.078369 973.828857,826.489990 973.882874,825.017578 
	C973.939209,823.483398 973.789062,821.929688 975.526794,821.226624 
	C978.177002,820.154419 978.145020,817.878540 977.732178,815.771912 
	C976.938965,811.723877 975.846558,807.732361 974.815491,803.733582 
	C973.862610,800.038208 971.473633,797.760559 967.805603,796.695374 
	C966.091797,796.197693 964.216309,795.681213 964.335083,793.496887 
	C964.510010,790.394836 968.295044,793.932617 968.197998,790.487793 
M500.876404,645.425415 
	C499.394653,646.158386 497.785645,646.713135 496.457428,647.661194 
	C493.603271,649.698547 491.097046,652.685181 493.145874,655.974182 
	C495.595947,659.907288 497.158752,654.346741 499.493835,654.486633 
	C504.110199,659.574585 505.999390,659.907898 513.526367,656.549561 
	C509.153809,652.947144 507.467834,647.074707 500.876404,645.425415 
M446.057343,698.252380 
	C447.717560,697.630188 450.421234,698.614807 450.519745,695.577759 
	C450.567505,694.105286 443.468933,689.933716 442.013428,690.603027 
	C439.423553,691.794006 440.185425,694.158936 440.418304,696.217407 
	C440.803986,699.627075 442.851105,699.577209 446.057343,698.252380 
M953.764587,840.661865 
	C954.569885,842.927429 951.705322,843.909302 951.822205,845.972839 
	C953.479004,847.206909 954.967102,846.730774 955.310059,845.028381 
	C956.238953,840.417603 954.558228,836.330261 952.550720,831.342773 
	C949.626160,835.582214 951.459167,837.813477 953.764587,840.661865 
M953.443542,800.459167 
	C950.088074,802.631348 949.669861,807.631348 952.782715,811.133423 
	C954.394531,807.775452 953.572632,804.344238 953.443542,800.459167 
M925.059692,790.997681 
	C921.544434,790.859802 921.455200,793.445068 921.330200,795.850708 
	C921.273743,796.938293 922.080688,797.840759 923.201782,797.604126 
	C926.098694,796.992676 925.663208,794.621826 925.609680,792.518005 
	C925.601501,792.197021 925.489929,791.878662 925.059692,790.997681 
M944.797852,932.885315 
	C945.438782,933.912109 945.381653,935.502625 947.277222,935.770630 
	C948.552429,933.718018 949.794373,931.728760 947.628174,929.323059 
	C945.842896,929.685791 944.897217,930.606567 944.797852,932.885315 
z"/>
<path fill="#000000" opacity="1.000000" stroke="none" 
	d="
M444.532043,1.000000 
	C454.755280,6.080369 463.510620,12.658692 471.970764,19.579515 
	C476.293579,23.115789 480.111298,27.322498 483.849213,31.501770 
	C486.278442,34.217831 487.911499,34.268665 490.861176,31.955408 
	C501.956512,23.254093 514.107910,15.810436 528.468750,15.354653 
	C541.547485,14.939565 553.587280,19.131353 561.446716,33.553703 
	C566.840454,43.451347 571.182251,53.658325 570.137390,65.337852 
	C570.067627,66.117989 570.384399,66.932709 570.514587,67.691757 
	C573.234131,68.961861 575.512024,67.030724 577.977844,67.254829 
	C585.229065,67.913879 589.942261,72.909386 591.189819,81.533295 
	C592.948242,93.688889 594.376099,105.904350 596.563416,117.982269 
	C598.527283,128.826004 596.096375,136.461945 585.823730,142.475723 
	C577.056274,147.608353 568.742065,151.197357 558.441406,150.136322 
	C556.417542,149.927841 553.471680,152.527435 551.960144,154.576401 
	C546.106812,162.510773 538.130615,167.807846 529.911377,172.689713 
	C527.866394,173.904373 525.676758,175.174469 523.523804,176.329529 
	C509.136627,184.048248 493.416138,186.100220 477.538818,187.565506 
	C473.576080,187.931213 469.613892,188.623672 465.609833,188.078369 
	C457.092682,186.918427 449.809235,184.011658 447.455963,174.269913 
	C438.070923,180.868057 428.781372,186.100006 418.694275,190.030487 
	C405.613281,195.127594 392.132477,198.508957 378.420258,201.309647 
	C371.556366,202.711594 364.739349,203.901367 357.739349,203.756699 
	C346.336273,203.521057 341.801544,199.876999 339.078491,188.446701 
	C334.797516,189.998840 330.919312,192.375076 326.645538,193.816666 
	C310.631348,199.218399 294.774902,205.103165 277.802063,206.791718 
	C270.524078,207.515732 263.191345,208.281403 256.163574,205.139145 
	C250.559143,202.633301 246.764694,198.824310 246.751862,192.299194 
	C246.744156,188.385925 245.257721,187.348389 241.461365,188.659515 
	C234.598618,191.029678 228.492767,195.068527 221.236008,196.696304 
	C206.304749,200.045547 191.451965,203.797562 176.172165,205.096039 
	C167.068329,205.869675 158.314209,203.906769 150.360550,199.264389 
	C142.898132,194.908707 136.595245,180.426422 138.230591,171.893890 
	C139.101395,167.350342 138.933029,162.650635 140.780380,158.294067 
	C139.926788,157.888367 139.472672,157.466736 139.068527,157.510147 
	C123.921280,159.137726 115.495728,144.243866 117.051620,131.389862 
	C118.014931,123.431488 119.903137,115.615837 124.389435,108.743629 
	C132.299774,96.626465 141.736816,86.307800 156.009293,81.497223 
	C158.724457,80.582069 161.907944,79.495674 161.637741,75.490288 
	C161.531601,73.916893 162.814438,73.289093 163.697937,72.307747 
	C166.580063,69.106407 169.778229,66.198814 172.027145,62.412865 
	C175.254715,56.979340 181.833832,55.640877 186.093628,51.202599 
	C191.762039,45.296684 199.551208,42.162270 206.737457,38.507690 
	C211.314117,36.180229 216.753403,35.455711 221.881439,34.368874 
	C223.228882,34.083298 224.349792,33.911819 225.371277,32.943024 
	C237.492538,21.446941 260.456116,28.260752 268.502380,39.473907 
	C270.339752,42.034416 272.392761,44.413609 273.879456,47.243481 
	C275.354797,50.051739 277.991211,50.279213 279.242157,47.570759 
	C283.279663,38.829018 290.920563,33.278572 297.380798,26.829603 
	C303.676605,20.544806 310.372253,14.493695 318.011719,9.662118 
	C333.589935,-0.190305 348.645081,2.092930 361.758667,16.365337 
	C365.676697,20.629583 369.156372,25.318018 374.449249,28.231764 
	C377.431854,29.873686 379.518524,30.219046 381.591034,27.103363 
	C386.910889,19.105656 394.496490,13.569855 402.983276,9.677485 
	C410.481079,6.238703 418.582428,4.115912 426.708649,1.206036 
	C432.688049,1.000000 438.376068,1.000000 444.532043,1.000000 
M310.335999,24.822187 
	C304.879364,30.157173 299.410950,35.480217 293.969116,40.830242 
	C287.549591,47.141464 281.698273,53.879276 278.310822,62.386524 
	C277.695618,63.931442 276.773438,65.017342 275.075928,65.005089 
	C273.378021,64.992844 272.984222,63.621105 272.723694,62.259392 
	C272.443237,60.793388 271.838196,59.288437 271.981903,57.861652 
	C272.380188,53.908833 270.830536,50.887024 268.561218,47.784077 
	C266.637634,45.153912 264.081146,43.400631 261.819000,41.236702 
	C255.267792,34.969868 242.821869,32.720978 234.579620,36.426056 
	C231.007751,38.031696 229.259506,40.007595 231.518234,44.146576 
	C233.578278,47.921482 233.189590,51.834454 230.657837,55.965118 
	C227.095947,52.453445 230.544556,46.857170 225.425201,44.309746 
	C223.259689,48.655289 221.155960,52.876842 218.799759,57.605064 
	C215.867065,51.616100 219.961090,46.729572 218.790802,40.778816 
	C195.057495,48.625786 177.163849,63.084705 163.856949,83.568382 
	C166.047638,87.260178 168.238327,90.951973 170.553146,94.852966 
	C158.961197,97.057083 158.961197,97.057083 154.395905,89.888901 
	C149.635315,89.966698 147.198074,93.604012 144.452271,96.549713 
	C134.451050,107.279076 124.745796,118.279305 123.060394,133.751617 
	C121.806595,145.261810 128.842361,153.091339 139.575485,151.640244 
	C142.381287,151.260910 145.188477,150.889008 147.987930,150.466614 
	C150.018265,150.160263 151.041031,151.449585 151.961212,152.888336 
	C152.937546,154.414871 152.575699,155.761398 151.208542,156.837418 
	C145.718674,161.158310 145.002930,167.568436 143.934540,173.748016 
	C142.485611,182.128632 146.648087,190.299957 153.804718,194.410812 
	C161.563278,198.867462 169.987106,199.233810 178.444412,198.380280 
	C192.181900,196.993851 205.782166,194.509995 219.016983,190.548248 
	C229.013824,187.555756 238.885620,184.044174 248.003403,178.826004 
	C249.477325,177.982468 250.599182,176.603027 252.389908,177.845413 
	C253.925308,178.910660 254.380203,180.540710 254.066971,182.262527 
	C253.740829,184.055374 253.050201,185.778625 252.646484,187.561203 
	C250.779922,195.802765 254.525650,201.386078 262.906616,201.354355 
	C271.184509,201.323044 279.610077,200.851654 287.702301,199.231796 
	C305.949463,195.579178 323.745056,190.205185 340.658417,182.257645 
	C342.446716,181.417343 344.127563,179.719315 345.966034,181.815613 
	C347.775330,183.878555 347.389496,186.068466 345.812622,188.189865 
	C343.734985,190.984955 344.161316,193.689148 346.921844,195.554581 
	C349.503479,197.299133 352.386932,198.468735 355.697998,198.642838 
	C370.568909,199.424759 384.611786,195.160660 398.629791,191.321960 
	C407.956024,188.768066 417.037231,185.450195 425.701843,180.605576 
	C431.476959,177.376587 436.825378,172.649292 443.866302,171.663147 
	C444.993530,171.505264 445.902771,170.037521 446.989868,169.286972 
	C448.483521,168.255753 448.812378,165.045044 451.472626,166.320038 
	C453.834290,167.451950 453.384705,170.013321 453.223724,172.141830 
	C452.887238,176.591187 455.073151,178.553604 459.201874,179.894577 
	C467.056030,182.445526 475.249146,181.824112 482.826447,180.817856 
	C491.048523,179.725967 499.441223,178.422867 507.651733,176.124619 
	C522.511963,171.964981 535.542297,164.813660 547.640564,155.634766 
	C550.674988,153.332535 553.164062,150.189911 553.634705,146.224060 
	C554.054810,142.683685 555.422119,142.435654 558.229492,143.912231 
	C561.433777,145.597565 565.439392,146.649841 568.288879,144.757675 
	C573.185852,141.505920 578.930725,140.328537 583.816162,137.093292 
	C590.430359,132.713272 593.040100,127.431282 592.467407,119.533073 
	C591.706482,109.039742 589.065552,98.866417 587.874512,88.468414 
	C587.012939,80.947075 585.654602,74.061523 575.386169,74.055511 
	C573.802246,75.211502 572.431213,78.055794 568.742310,76.254799 
	C565.209534,74.530060 565.754395,71.851265 565.876038,69.105064 
	C566.481812,55.428986 563.316223,42.993568 553.692993,32.812206 
	C550.663818,29.607410 548.009155,25.689959 543.511841,24.361307 
	C537.188293,22.493158 530.465454,21.985151 524.262207,23.750612 
	C512.451782,27.111862 500.868958,31.493111 491.378235,39.666637 
	C487.502411,43.004559 484.452576,42.214005 482.209686,38.703392 
	C475.739868,28.576563 465.703186,22.469328 456.609894,15.333066 
	C452.588593,12.177184 447.876099,9.960295 442.677216,9.030504 
	C433.832092,7.448594 425.709167,9.543619 417.538940,12.903101 
	C406.089294,17.611040 395.410767,23.446785 385.939453,31.434988 
	C383.706451,33.318306 383.050903,36.949940 379.610077,37.452541 
	C375.470795,38.057167 375.186646,33.248207 372.508881,32.070194 
	C364.782593,28.671259 359.876526,21.879793 353.445221,16.955654 
	C349.117554,13.642159 344.540314,10.751134 338.661499,11.078922 
	C327.554749,11.698210 319.218658,18.098948 310.335999,24.822187 
z"/>
<path fill="#000000" opacity="1.000000" stroke="none" 
	d="
M448.008636,219.878479 
	C455.447571,217.559875 460.718384,211.686249 468.535217,210.586426 
	C478.434814,209.193604 485.976074,213.483536 493.247375,218.920868 
	C496.958313,221.695847 500.252106,225.004288 502.928986,228.884903 
	C504.221161,230.758087 505.545837,232.551651 508.532379,232.189026 
	C511.112091,231.875824 511.556458,234.474319 512.031067,236.332016 
	C515.425232,249.617294 511.541016,258.237854 498.938202,263.715607 
	C491.817902,266.810394 484.330872,269.180847 476.836761,271.255371 
	C471.547089,272.719635 466.152466,272.830750 461.200867,269.112885 
	C458.708313,267.241394 456.089783,269.600128 453.854156,270.759918 
	C447.749512,273.926819 441.303864,276.062683 434.660797,277.627563 
	C432.590271,278.115265 430.370087,278.183868 428.229858,278.110626 
	C424.641235,277.987762 422.374054,276.179443 421.714691,272.465942 
	C420.501709,265.634216 420.192749,258.987854 423.929535,252.660675 
	C425.169373,250.561356 425.853973,248.158295 425.150513,245.488388 
	C422.956360,237.160492 427.138947,231.711792 433.228210,226.668121 
	C437.579590,223.063934 442.987579,222.491257 448.008636,219.878479 
M452.341003,224.876999 
	C449.370483,225.379898 447.769196,229.037796 445.218079,229.093307 
	C438.464325,229.240250 435.577881,234.343155 431.781311,238.307632 
	C429.218445,240.983856 427.956726,243.830200 432.151398,246.488724 
	C434.001190,247.661087 434.325195,249.332169 432.220459,250.891586 
	C427.164337,254.637604 426.418671,260.423767 425.563416,265.965210 
	C424.776764,271.062012 426.415863,272.524139 431.640045,272.201019 
	C432.945770,272.120270 434.313812,271.823975 435.503571,271.292053 
	C442.598969,268.119751 450.471497,266.849640 457.073669,262.482727 
	C459.575470,260.827942 461.668732,260.922791 463.345917,263.714996 
	C464.647583,265.882080 466.789612,266.046265 469.057312,265.833038 
	C479.539001,264.847382 489.465363,261.596893 498.749908,256.996552 
	C503.882629,254.453369 509.227142,250.740982 508.946106,243.519821 
	C508.891815,242.124847 509.448212,240.156158 507.501312,239.692780 
	C503.379333,238.711731 501.823853,235.110580 500.036072,232.143677 
	C496.481537,226.244843 490.833099,222.715561 485.229645,219.933395 
	C480.091125,217.382065 473.612701,215.344345 467.857910,217.793304 
	C462.886536,219.908859 457.833038,222.035080 452.341003,224.876999 
z"/>
<path fill="#000000" opacity="1.000000" stroke="none" 
	d="
M508.896667,317.038757 
	C505.906616,319.489685 502.488861,320.142792 499.299347,320.586151 
	C495.940765,321.052948 493.242249,320.121307 492.352509,315.479553 
	C491.145264,309.181549 493.819366,303.701813 494.238892,297.867615 
	C494.896851,288.717957 501.964081,285.471008 507.747681,281.023682 
	C511.942993,277.797577 514.259155,278.453888 517.412903,282.706696 
	C520.555725,286.944824 522.180725,291.880310 522.991150,296.982513 
	C524.356812,305.580444 518.588684,310.352783 512.686401,314.890717 
	C511.645264,315.691223 510.361481,316.176208 508.896667,317.038757 
M506.431458,311.905121 
	C510.449585,310.165375 513.600830,307.136871 516.733704,304.290527 
	C520.726929,300.662476 519.339050,290.555145 514.203186,287.358093 
	C509.503845,284.432800 506.948395,287.420471 505.843964,292.042114 
	C505.777466,292.320465 505.460480,292.605408 505.187744,292.758240 
	C499.457458,295.968903 498.858856,302.138275 496.797882,307.429688 
	C495.940125,309.631958 495.559814,312.220428 497.597290,313.916199 
	C499.721130,315.683929 501.972290,314.441132 504.000641,313.157013 
	C504.559814,312.802979 505.153168,312.502899 506.431458,311.905121 
z"/>
<path fill="#000000" opacity="1.000000" stroke="none" 
	d="
M831.608154,360.127655 
	C830.979248,359.339417 830.520386,358.848450 830.228149,358.272888 
	C829.521423,356.881226 828.067383,355.524353 829.471863,353.847473 
	C830.273682,352.890106 831.475159,352.825928 832.647095,353.208435 
	C834.768188,353.900726 834.617249,355.508118 834.234497,357.206146 
	C833.841980,358.947754 835.227295,360.269928 835.405823,362.083130 
	C833.580200,362.795349 832.900696,361.164276 831.608154,360.127655 
z"/>
<path fill="#000000" opacity="1.000000" stroke="none" 
	d="
M863.082825,830.122314 
	C857.491943,837.595886 851.561584,839.455017 842.838928,836.695862 
	C842.213013,836.497803 841.439453,836.098145 840.931519,836.296509 
	C834.401978,838.847107 832.182983,835.049011 830.978210,829.667175 
	C830.869568,829.181885 830.817078,828.555908 830.494873,828.265747 
	C825.769348,824.009949 824.630127,819.500427 827.291809,813.218201 
	C829.533936,807.926208 831.824463,803.290222 836.132263,799.200439 
	C842.006775,793.623291 848.342712,789.133972 855.831909,786.252258 
	C859.283875,784.924072 862.619507,784.941956 865.413757,788.033508 
	C866.620483,789.368713 868.060364,790.899658 870.016541,790.738159 
	C873.241211,790.471924 874.714661,792.537842 876.451538,794.632996 
	C879.950684,798.854065 883.989319,802.438293 889.300720,804.522705 
	C891.377563,801.785706 890.915955,798.836182 890.860413,796.139893 
	C890.741821,790.390320 891.559631,784.939392 893.792725,779.587830 
	C894.907776,776.915710 895.423279,773.217712 899.052795,774.673584 
	C901.933044,775.828918 902.374084,779.179688 902.149231,782.721497 
	C901.395874,794.589294 898.689758,806.336060 899.890625,818.341736 
	C900.124512,820.680298 901.555908,822.620300 901.953674,826.135986 
	C896.412048,823.549438 890.452454,824.995239 886.655518,819.327454 
	C884.766174,816.507080 881.628784,814.156738 877.228149,814.466370 
	C877.300293,820.166870 872.663940,823.116455 870.407715,827.399536 
	C869.064880,829.948792 865.034790,827.025635 863.082825,830.122314 
M843.869263,807.646179 
	C844.327026,810.841980 841.721802,812.318665 840.026489,814.210327 
	C836.961487,817.630615 836.090820,823.762939 838.386536,827.562073 
	C839.879028,830.031921 841.871033,831.088196 844.657410,829.666748 
	C852.495300,825.668518 859.066040,820.301025 862.980591,812.214844 
	C864.729919,808.601196 864.950317,804.907837 862.685120,801.334412 
	C860.599670,798.044434 857.255493,799.179871 854.510254,799.403076 
	C849.680054,799.795776 846.592529,803.183899 843.869263,807.646179 
z"/>
<path fill="#000000" opacity="1.000000" stroke="none" 
	d="
M796.148804,801.045105 
	C790.862427,800.647278 785.915527,800.208618 780.976318,800.282043 
	C777.911438,800.327576 775.851196,802.003235 775.186890,805.402283 
	C774.555786,808.631653 773.338135,811.751343 772.308899,814.896545 
	C771.376709,817.745361 769.508606,819.736267 766.378906,818.798828 
	C763.146851,817.830688 762.850708,814.732666 763.668945,812.172546 
	C765.259216,807.196533 767.015686,802.192017 769.424988,797.575989 
	C774.861206,787.160339 781.586365,777.416931 785.444763,766.181458 
	C786.222717,763.916199 794.300232,759.798889 796.572693,760.217834 
	C797.622375,760.411316 798.431030,760.997375 798.789551,762.009277 
	C799.244751,763.293945 798.804871,764.454712 797.588562,764.907776 
	C795.923157,765.528259 794.576111,766.400391 794.017334,768.102173 
	C792.101379,773.938232 789.543274,779.469482 786.436279,784.764709 
	C784.273438,788.450867 786.010010,790.508423 789.637817,791.105103 
	C795.669678,792.097290 801.683105,792.918457 807.533142,794.937988 
	C812.084656,796.509277 814.181641,793.176636 814.476807,789.392700 
	C814.849670,784.612732 815.351990,779.883179 816.041626,775.137146 
	C816.755066,770.228333 820.373535,766.527283 824.410889,767.377258 
	C827.775024,768.085449 830.338806,772.957825 828.566956,777.249023 
	C825.052917,785.759583 824.908142,795.006531 822.016724,803.644897 
	C819.899902,809.968933 817.348938,816.245544 817.882812,823.294556 
	C818.070251,825.770264 817.329285,830.054932 814.136475,829.998108 
	C810.612366,829.935425 811.493042,825.689453 810.962891,823.118958 
	C810.673584,821.716309 810.911255,820.133972 811.206482,818.693176 
	C813.206055,808.933960 809.989075,804.083496 800.299255,802.307922 
	C799.007019,802.071106 797.759644,801.589050 796.148804,801.045105 
z"/>
<path fill="#000000" opacity="1.000000" stroke="none" 
	d="
M600.101440,962.412842 
	C599.883728,963.535583 600.090027,964.508362 598.968506,964.720703 
	C596.626038,959.345520 597.291931,952.313782 600.628784,950.308167 
	C603.559509,954.396240 598.669556,958.165588 600.101440,962.412842 
z"/>
<path fill="#000000" opacity="1.000000" stroke="none" 
	d="
M476.201904,533.637512 
	C472.236908,519.457031 472.035217,505.739868 479.759796,493.256439 
	C485.189514,484.481659 491.745880,476.243408 501.804230,472.087067 
	C504.429779,471.002167 506.787476,469.633942 509.230835,468.238647 
	C516.666809,463.992249 524.837769,463.555481 532.888977,465.938660 
	C537.278198,467.237885 540.596191,464.791870 544.361694,464.056427 
	C546.153687,463.706390 545.841003,461.704773 544.352966,460.544281 
	C541.821960,458.570496 540.070801,456.123688 538.474304,453.282532 
	C536.227295,449.283691 532.295837,448.174561 528.193176,450.528992 
	C524.566101,452.610413 520.783325,452.039948 517.004700,452.056549 
	C515.408020,452.063568 514.074219,451.275421 513.657654,449.579865 
	C513.257324,447.950562 513.885925,446.573151 515.211731,445.645874 
	C523.039490,440.170654 534.471924,436.957886 543.708374,446.856323 
	C553.015930,456.831024 554.907654,457.250153 560.159119,444.707733 
	C563.026489,437.859222 565.584717,430.880280 568.230591,423.940399 
	C570.332214,418.428101 572.087463,412.762970 574.541687,407.415924 
	C575.560425,405.196381 574.609192,403.153351 575.267639,401.157410 
	C577.007690,395.882416 579.276611,390.881805 579.278198,385.005432 
	C579.279114,381.819672 583.282410,382.180267 585.814331,382.427490 
	C588.284912,382.668671 589.291504,384.043518 588.856201,386.961914 
	C587.745361,394.409058 585.856812,401.478851 582.485107,408.293304 
	C577.968567,417.421326 576.922302,427.903809 571.439941,436.772491 
	C567.563477,443.043396 564.694641,449.873627 562.023621,456.805176 
	C561.020447,459.408386 557.612000,461.152283 555.161804,463.115387 
	C550.849487,466.570526 550.558167,468.250092 554.671753,471.690979 
	C558.157715,474.606842 559.255371,478.897949 561.623596,482.440033 
	C562.393982,483.592224 562.836182,485.515839 561.346741,486.557892 
	C559.674927,487.727478 557.744080,486.720673 556.983459,485.360901 
	C550.395447,473.583160 538.097229,474.171722 527.543152,473.047455 
	C520.607056,472.308594 513.012573,475.584442 506.324066,478.942902 
	C502.548126,480.838867 499.020050,483.234955 495.419952,485.469604 
	C494.599487,485.978882 493.598450,486.610413 493.263367,487.425293 
	C489.411804,496.792542 480.810577,503.739319 480.305969,514.934021 
	C479.879333,524.398193 480.985809,533.086975 487.232574,540.481506 
	C491.936859,546.050171 495.244781,552.685181 500.945770,557.512146 
	C509.104248,564.419983 517.438721,570.882568 528.166016,573.302856 
	C531.821228,574.127441 534.541199,572.653442 535.770325,569.353821 
	C540.834839,555.758179 548.317078,543.701721 558.417908,533.325867 
	C561.743774,529.909485 566.535278,528.351990 570.837524,527.336853 
	C574.320435,526.515076 578.659973,529.658264 580.403320,532.628784 
	C584.869446,540.238586 591.233276,547.330322 588.762329,557.656799 
	C588.000122,560.842102 590.128418,564.691528 590.820374,568.258789 
	C591.886597,573.755859 591.145691,574.571838 585.543152,574.525269 
	C584.918396,574.520081 584.100525,574.665833 583.692993,575.067261 
	C577.645020,581.024475 568.800232,579.135071 561.965271,582.851318 
	C561.545776,583.079407 560.927368,583.285278 560.522766,583.146912 
	C550.000732,579.548157 538.912415,581.631470 528.220215,579.895752 
	C520.516785,578.645142 514.441101,573.588379 507.485870,570.560608 
	C496.218109,565.655457 489.718353,555.511108 482.098694,546.672424 
	C479.014954,543.095337 477.900208,538.394592 476.201904,533.637512 
M575.429321,537.969421 
	C571.071106,535.335266 564.334961,537.403076 561.584534,542.310974 
	C556.229980,551.865356 550.433594,561.130249 543.736389,569.808472 
	C542.421204,571.512573 541.876343,573.048950 544.146057,574.324463 
	C547.504456,576.211670 559.582947,574.337952 561.549316,571.085693 
	C564.543213,566.134155 567.970886,561.331909 569.634033,555.682617 
	C570.283020,553.477966 569.793396,550.992981 571.085388,548.908936 
	C571.721985,547.882141 572.547363,547.046875 573.881714,547.160828 
	C575.106079,547.265503 575.700928,548.250183 575.626709,549.233582 
	C575.189819,555.021179 578.088013,561.204224 573.508057,566.530396 
	C572.378296,567.844238 571.676880,569.600708 574.080811,570.538452 
	C578.367676,572.210815 583.916016,568.082886 583.992493,563.554199 
	C584.149536,554.251770 580.972595,546.111084 575.429321,537.969421 
z"/>
<path fill="#000000" opacity="1.000000" stroke="none" 
	d="
M490.520142,513.125366 
	C490.410187,509.443115 490.149200,506.152313 491.244690,502.881653 
	C493.314240,496.703003 497.266815,493.540833 503.790070,491.641998 
	C517.438721,487.668976 528.415283,493.532013 539.648804,499.328125 
	C540.502258,499.768463 541.578979,500.499664 541.811279,501.308411 
	C544.221252,509.699524 548.504028,517.522034 544.427307,527.073120 
	C540.630859,535.967651 533.771545,538.631287 525.590149,540.231018 
	C518.913025,541.536560 512.196716,542.642517 505.521576,543.957581 
	C501.595062,544.731018 498.177704,543.335205 496.380554,540.269958 
	C491.572357,532.069092 490.467926,522.856506 490.520142,513.125366 
z"/>
<path fill="#000000" opacity="1.000000" stroke="none" 
	d="
M568.844360,331.708679 
	C573.116394,329.847046 576.462158,326.958466 580.730774,325.875458 
	C583.994141,325.047485 586.828918,325.411102 588.309326,328.719147 
	C589.881042,332.231110 587.264954,334.212341 584.711365,335.279053 
	C579.623413,337.404480 575.891602,341.635834 570.733826,343.654419 
	C568.666565,344.463501 567.150330,346.527527 565.927429,348.558350 
	C564.873535,350.308533 563.564087,351.902863 561.346680,352.007355 
	C558.476074,352.142639 556.324707,353.308594 554.616455,355.624146 
	C553.240051,357.489929 551.280701,357.977905 549.427002,356.420135 
	C547.586426,354.873474 548.047302,353.004883 549.145325,351.058136 
	C553.793396,342.817322 561.508728,337.708160 568.844360,331.708679 
z"/>
<path fill="#000000" opacity="1.000000" stroke="none" 
	d="
M618.950195,499.261047 
	C615.809448,498.769196 612.929321,498.051239 613.048645,494.670868 
	C613.152039,491.742279 616.368286,490.879150 618.267944,491.076355 
	C624.668457,491.740784 631.034485,492.270813 637.440552,493.852112 
	C647.507629,496.337189 648.828918,504.520355 652.704224,511.618164 
	C655.819031,517.322998 654.178589,520.799561 649.678406,524.481506 
	C647.447021,522.142761 647.976379,518.807495 647.322754,516.381958 
	C645.671753,510.254883 639.562378,508.528259 636.907898,503.585724 
	C636.074036,502.033203 632.108093,502.128571 629.559570,501.539734 
	C626.167786,500.756012 622.760132,500.040802 618.950195,499.261047 
z"/>
<path fill="#000000" opacity="1.000000" stroke="none" 
	d="
M730.387939,414.361359 
	C727.552429,408.937469 727.693970,403.111420 726.255249,397.712738 
	C724.554321,391.330292 721.225342,386.337158 717.769714,381.141815 
	C717.342468,380.499481 717.177429,379.682678 716.899109,378.967957 
	C720.871277,377.010254 725.404663,378.806915 728.685364,383.148987 
	C733.886963,390.033295 738.102661,397.428680 741.037354,405.557098 
	C741.966248,408.129974 737.798096,417.510895 735.304810,417.756317 
	C733.132141,417.970154 731.665344,416.462952 730.387939,414.361359 
z"/>
<path fill="#000000" opacity="1.000000" stroke="none" 
	d="
M529.983154,664.014526 
	C533.050598,663.761414 535.655334,664.414490 538.233398,666.487610 
	C540.978882,668.695435 544.677856,668.379456 548.065125,668.100342 
	C549.691833,667.966309 551.282837,667.151978 552.834351,669.703125 
	C543.289246,670.660339 534.433105,674.629944 524.803589,671.770325 
	C525.503784,667.152283 530.162170,669.642212 532.333496,667.497864 
	C532.488525,666.037903 530.835205,665.599609 530.178284,664.221741 
	C530.003540,663.986267 529.992065,664.005737 529.983154,664.014526 
z"/>
<path fill="#000000" opacity="1.000000" stroke="none" 
	d="
M634.948730,671.493896 
	C639.852905,670.952942 644.360779,670.546692 648.868713,670.140381 
	C648.950195,670.859009 649.031616,671.577637 649.113037,672.296265 
	C640.836304,673.256897 632.559509,674.217529 623.255005,675.297424 
	C626.653076,670.101807 631.439087,673.822021 634.948730,671.493896 
z"/>
<path fill="#000000" opacity="1.000000" stroke="none" 
	d="
M720.964233,258.979248 
	C721.952820,260.415588 723.481262,261.538635 723.934753,263.856415 
	C721.475159,263.904633 719.223145,264.419952 716.912903,263.566254 
	C716.762329,260.848785 718.679993,260.138855 720.709412,259.138611 
	C721.015564,259.010468 720.981812,258.989349 720.964233,258.979248 
z"/>
<path fill="#000000" opacity="1.000000" stroke="none" 
	d="
M477.994751,131.920959 
	C480.964233,132.147964 482.591980,130.078232 484.749298,129.285156 
	C486.610474,128.600952 488.330780,127.387566 490.525055,128.858551 
	C490.751434,132.414078 488.071533,134.362595 485.628143,135.634720 
	C478.456390,139.368561 470.568146,140.540726 462.546539,140.708481 
	C460.998169,140.740860 459.525848,139.861649 458.678802,138.651184 
	C456.918182,136.135147 454.580627,135.682236 451.665466,136.475464 
	C450.712006,133.153793 450.087463,130.142258 450.677307,126.979294 
	C451.544983,122.326363 451.750885,117.722488 449.487762,113.354866 
	C448.802521,112.032402 448.310242,111.363434 450.555145,111.069878 
	C451.406342,110.958565 450.569916,108.685890 449.641998,107.735817 
	C448.208893,106.268471 446.131836,104.617989 444.484070,106.372620 
	C441.507019,109.542786 440.708130,106.520668 438.893585,104.647003 
	C438.235748,108.648430 436.268372,111.056694 432.067993,110.792702 
	C432.605499,115.543503 432.219971,119.953239 431.391388,124.399506 
	C430.889648,127.091743 430.506866,130.046936 432.328064,132.613144 
	C432.956726,133.498978 433.167755,134.499420 432.314270,135.326141 
	C431.197418,136.407974 430.138885,135.664322 429.217346,134.943680 
	C427.375275,133.503098 426.639954,131.520645 426.676788,129.229523 
	C426.764709,123.754082 426.194214,118.269173 427.505890,112.819420 
	C427.998688,110.771896 427.833191,108.491264 427.592072,106.359398 
	C427.239227,103.239937 424.001343,101.432739 422.408661,102.873260 
	C419.666077,105.353889 416.143646,104.775810 413.254761,106.849632 
	C418.369843,116.257492 413.334595,124.235382 409.566345,132.443161 
	C406.636963,132.565063 406.523193,130.735931 406.627045,128.800568 
	C406.894318,123.818886 407.419342,118.850601 408.855408,114.069923 
	C409.665588,111.372971 409.821350,108.911331 408.247406,105.858147 
	C403.171936,108.679596 395.518250,106.809219 393.925446,115.083145 
	C388.582458,113.433548 388.553619,109.251595 390.140686,104.674751 
	C392.968353,96.520386 399.141785,97.597092 404.929779,97.218010 
	C408.959595,96.954071 409.899902,95.187103 409.846100,91.528099 
	C409.783203,87.249443 408.158447,82.980431 409.733582,78.666046 
	C410.212402,77.354462 409.560394,75.307877 411.640350,75.121346 
	C413.695618,74.937027 415.181213,76.382591 415.782440,78.156143 
	C417.050629,81.897385 416.837952,85.703903 415.122833,89.298752 
	C413.168213,93.395653 414.825653,96.143181 419.407562,96.203239 
	C427.853760,96.313950 427.859344,96.292679 428.855957,87.791870 
	C429.086884,85.822151 429.383881,83.839333 430.973022,82.044365 
	C434.259521,82.245087 435.185181,84.656502 435.610626,87.359200 
	C435.786255,88.474983 435.445343,89.668396 435.367310,90.828369 
	C434.862000,98.339302 434.798615,98.780792 442.133545,99.876213 
	C448.820160,100.874809 452.288788,105.530502 456.323364,110.572266 
	C459.008667,105.035065 462.832825,101.043884 467.855774,98.251030 
	C471.195831,96.393898 474.864075,95.386414 478.564209,94.770439 
	C481.518433,94.278641 483.624115,96.014999 484.833344,98.723831 
	C487.976349,105.764328 485.950867,112.155762 480.017914,117.284744 
	C475.421021,121.258720 469.706726,122.381287 464.534027,124.858719 
	C463.038513,125.574989 461.119934,125.925446 461.441254,128.129944 
	C461.715149,130.008987 463.552460,130.210785 464.949554,130.372437 
	C469.168945,130.860641 473.120819,133.585464 477.994751,131.920959 
M468.070831,110.495026 
	C467.034637,112.206528 464.701752,112.989540 464.103455,116.025703 
	C471.214783,113.740852 474.585449,107.320076 480.595367,105.265007 
	C480.225281,102.651512 478.720764,101.951187 476.861084,101.025322 
	C476.111359,103.278740 472.890839,103.427223 472.410919,104.394661 
	C471.360199,106.512650 470.186493,108.362419 468.070831,110.495026 
M457.663208,122.386818 
	C457.560364,121.269928 457.733643,119.960983 455.679108,119.951500 
	C455.082336,122.025085 453.447937,124.004463 455.347382,126.851929 
	C456.273499,125.269112 456.930023,124.147064 457.663208,122.386818 
z"/>
<path fill="#000000" opacity="1.000000" stroke="none" 
	d="
M212.093781,78.757675 
	C229.401062,83.730766 240.245758,100.324364 236.262115,115.568336 
	C235.313400,119.198814 233.928482,122.795807 232.194473,126.121574 
	C229.646072,131.009323 225.893494,134.486084 220.015289,135.427170 
	C214.451340,136.317932 209.041458,138.234573 203.467529,138.984100 
	C196.008743,139.987076 191.713150,136.452652 190.590164,129.098587 
	C190.088654,125.814316 189.549332,122.610748 187.926315,119.618301 
	C184.478058,113.260590 188.771286,107.925613 191.148605,102.870926 
	C194.562271,95.612747 198.493835,88.334312 205.541992,83.576912 
	C206.138947,83.173981 206.657776,82.185616 206.668152,81.461426 
	C206.725128,77.482063 208.967010,77.671082 212.093781,78.757675 
M194.368744,120.726845 
	C194.368744,129.197693 195.192719,129.929367 203.294510,128.950668 
	C204.936646,128.752304 206.616196,128.870712 208.278076,128.827347 
	C215.194580,128.646881 221.195007,125.531555 225.234528,120.535622 
	C229.331238,115.468948 233.613403,109.375053 228.371658,102.109734 
	C227.562210,100.987816 226.975784,99.171967 227.533401,97.881454 
	C228.650146,96.932755 229.573639,98.993065 230.824844,96.211952 
	C224.732162,95.991562 221.289673,90.642227 215.541992,89.768707 
	C213.255020,89.421143 211.312500,90.152092 209.672958,91.802193 
	C201.848495,99.676987 195.140945,108.150352 194.368744,120.726845 
z"/>
<path fill="#000000" opacity="1.000000" stroke="none" 
	d="
M344.410828,146.197144 
	C335.086761,145.534286 327.758911,140.783173 322.037781,134.815460 
	C318.049500,130.655258 318.550323,123.717445 321.205597,118.210968 
	C325.952637,108.366562 326.311523,98.141876 325.019043,87.630409 
	C324.896820,86.636452 324.779694,85.629875 325.655579,84.858749 
	C330.622162,85.488876 332.324951,88.309700 331.820923,95.026787 
	C331.609863,97.839203 331.410736,100.652992 331.252136,103.468742 
	C331.106842,106.048126 332.338104,107.264565 334.902191,106.711929 
	C342.023010,105.177177 347.688934,108.374695 352.379700,112.922752 
	C357.045258,117.446404 360.084991,123.237267 361.556793,129.716507 
	C364.382233,142.154770 359.312256,147.353348 344.410828,146.197144 
M343.105286,138.610687 
	C344.929626,138.621002 346.912079,139.096863 348.544678,138.542480 
	C351.719604,137.464417 355.488434,137.060898 356.994751,133.202866 
	C358.355652,129.717346 355.592712,128.218750 352.949921,126.019836 
	C356.336823,125.280647 355.067780,123.682480 354.442261,122.126465 
	C351.777252,115.497246 345.078796,116.753548 340.055511,114.763512 
	C336.364807,113.301399 333.400940,114.937828 331.366516,117.793015 
	C328.505219,121.808609 328.041504,126.723473 327.279968,131.455841 
	C327.026855,133.028778 328.290070,133.697723 329.420044,134.485123 
	C333.305786,137.192810 337.358734,139.242996 343.105286,138.610687 
z"/>
<path fill="#000000" opacity="1.000000" stroke="none" 
	d="
M522.035034,94.959053 
	C517.182495,96.521530 512.954407,98.350487 509.647186,102.808258 
	C512.906677,107.682762 517.284363,112.096039 519.897217,117.651115 
	C521.885315,121.877991 521.916260,126.022575 519.357300,129.994812 
	C516.978699,133.687134 512.778442,134.960205 509.303314,133.905182 
	C503.302612,132.083374 495.521851,131.858795 493.452057,124.033333 
	C491.980316,118.468803 491.077911,112.630508 492.479706,106.790291 
	C493.187134,103.842728 493.346588,101.295952 489.773560,99.811989 
	C487.829010,99.004356 486.674408,96.830406 487.586426,94.805016 
	C488.775574,92.164215 491.192841,93.441841 492.741241,94.382851 
	C498.673370,97.987984 503.462067,96.978889 508.549500,92.297653 
	C512.418884,88.737213 517.471191,86.842003 522.986511,86.202957 
	C528.314636,85.585625 532.592651,87.095123 537.316467,91.053383 
	C532.479736,94.557007 526.684998,92.158836 522.035034,94.959053 
M500.656464,112.082169 
	C499.037384,115.598152 497.190430,119.347786 500.661285,122.596657 
	C505.946228,127.543686 511.148895,123.595306 516.457031,122.092316 
	C516.964905,116.505150 512.671204,113.741783 510.032501,110.151962 
	C505.904053,104.535408 504.267029,104.808678 500.656464,112.082169 
z"/>
<path fill="#000000" opacity="1.000000" stroke="none" 
	d="
M238.228348,121.506256 
	C240.595566,111.620781 243.457397,102.298759 245.356750,92.718788 
	C246.273056,88.097015 245.048538,83.539238 245.528885,78.941429 
	C249.717590,79.703285 251.952499,83.210350 252.188171,88.454521 
	C252.376007,92.634483 250.688766,96.524994 250.122467,100.839775 
	C254.345490,100.991638 258.020477,100.584091 261.798492,101.891037 
	C269.453400,104.539131 273.277802,109.482887 274.414886,117.444595 
	C275.630981,125.959190 275.271271,134.019623 271.007935,141.656799 
	C270.128632,143.231949 270.154968,143.246658 266.535370,145.207138 
	C269.058899,132.536072 268.910950,120.478638 266.442871,108.544754 
	C264.270660,110.064407 268.037750,110.653305 266.239532,112.213493 
	C265.095154,113.423874 263.848328,112.499115 262.638153,112.145302 
	C254.705795,109.826118 250.869141,111.701683 248.149612,119.513504 
	C247.223969,122.172394 246.832031,125.013344 245.985245,127.704720 
	C245.404465,129.550629 244.934128,131.886749 242.385010,131.899063 
	C239.900391,131.911072 239.333405,129.592773 238.548248,127.824326 
	C237.717316,125.952675 237.865173,123.914696 238.228348,121.506256 
z"/>
<path fill="#000000" opacity="1.000000" stroke="none" 
	d="
M370.442627,112.641113 
	C373.580933,106.534271 376.912170,106.074051 383.364410,110.546906 
	C391.434296,116.141159 392.809906,125.143036 386.986450,132.771088 
	C383.880707,136.839279 380.039185,139.969742 375.623413,142.318939 
	C371.102051,144.724319 367.653687,142.880875 365.801727,138.249802 
	C363.856995,133.386719 364.781616,128.715561 366.053223,124.097412 
	C367.100983,120.292313 368.832581,116.675522 370.442627,112.641113 
M373.364075,122.831123 
	C372.077576,126.901100 369.614807,130.773041 370.859131,136.272583 
	C376.097778,133.419769 381.079132,131.611237 383.687744,126.623596 
	C385.805328,122.574760 384.990692,118.300858 382.138794,116.928787 
	C379.128571,115.480568 375.464844,117.735802 373.364075,122.831123 
z"/>
<path fill="#000000" opacity="1.000000" stroke="none" 
	d="
M284.154602,156.649094 
	C281.947937,155.710312 280.263031,155.153488 278.438446,157.049530 
	C277.232666,158.302521 275.537048,159.290405 273.197327,158.441605 
	C273.221039,154.390564 275.303375,152.855362 279.116211,153.530960 
	C283.519073,154.311157 285.568604,153.999893 285.359070,148.158569 
	C285.211365,144.040634 286.190460,140.718491 281.821381,138.361771 
	C280.724487,137.770111 280.247345,135.878616 279.670288,134.506714 
	C278.601715,131.966324 277.744476,128.940048 280.481049,127.305908 
	C283.416718,125.552910 286.415741,127.108810 288.434937,129.575226 
	C294.792908,137.341354 292.813416,150.454849 284.154602,156.649094 
z"/>
</svg>